<svg width="24" height="24" viewBox="0 0 24 24" fill="none" xmlns="http://www.w3.org/2000/svg">
<path fill-rule="evenodd" clip-rule="evenodd" d="M11.7425 8.91009C11.7425 8.18736 11.5532 7.56787 11.1757 7.0493C10.5466 6.20476 9.48003 5.77204 7.9725 5.75H2V17.9426H7.56916C8.1971 17.9426 8.778 17.8892 9.3154 17.779C9.8528 17.6676 10.3173 17.4646 10.7112 17.1665C11.0616 16.9066 11.3533 16.5864 11.5861 16.2071C11.9542 15.634 12.1376 14.9855 12.1376 14.2628C12.1376 13.5621 11.9765 12.9658 11.6567 12.4762C11.3333 11.9855 10.8582 11.627 10.2279 11.3997C10.643 11.1908 10.957 10.9588 11.171 10.7059C11.5532 10.2535 11.7425 9.65371 11.7425 8.91009ZM20.0763 7.8359H14.7799V6.3185H20.0763V7.8359ZM15.3973 12.5423C15.4843 11.9553 15.6971 11.4901 16.0346 11.1467C16.3721 10.8033 16.8495 10.6316 17.461 10.6316C18.0255 10.6316 18.497 10.7929 18.8804 11.1166C19.259 11.4426 19.473 11.9159 19.5165 12.5423H15.3973ZM19.6095 9.10986C20.248 9.39061 20.7736 9.83608 21.1876 10.444C21.565 10.9799 21.8073 11.6017 21.9178 12.3082C21.9825 12.7212 22.0084 13.3198 21.9978 14.0983H15.3385C15.3785 15.002 15.6937 15.6365 16.2957 15.9997C16.6603 16.2259 17.0989 16.3396 17.6139 16.3396C18.156 16.3396 18.5994 16.2015 18.9392 15.9266C19.1262 15.7769 19.2908 15.5704 19.4319 15.3059H21.872C21.8073 15.8396 21.5109 16.3836 20.9865 16.9359C20.168 17.8117 19.0215 18.2502 17.5481 18.2502C16.331 18.2502 15.2574 17.8813 14.3296 17.1412C13.3971 16.4022 12.9338 15.198 12.9338 13.5321C12.9338 11.9695 13.3536 10.7711 14.192 9.93701C15.0328 9.10522 16.1205 8.68643 17.4599 8.68643C18.256 8.68643 18.9721 8.82796 19.6095 9.10986ZM4.4635 15.8265V12.5748H7.50678C8.03594 12.5794 8.44869 12.649 8.74267 12.7813C9.26831 13.0191 9.52936 13.4541 9.52936 14.0899C9.52936 14.8393 9.2589 15.3451 8.7168 15.6119C8.41929 15.7546 8.00066 15.8265 7.46444 15.8265H4.4635ZM4.4635 7.86705V10.5573H7.46915C8.00419 10.5573 8.44046 10.4564 8.77677 10.2545C9.11073 10.0527 9.27889 9.69535 9.27889 9.18491C9.27889 8.61531 9.05782 8.2406 8.61567 8.0573C8.23232 7.93085 7.74549 7.86705 7.154 7.86705H4.4635Z" fill="#9CA3AF"/>
</svg>
