<svg width="149" height="122" viewBox="0 0 149 122" fill="none" xmlns="http://www.w3.org/2000/svg">
<g clip-path="url(#clip0_32777_864)">
<path d="M121.761 27.1045H108.304V94.9043H121.761V27.1045Z" fill="#1F2937"/>
<path d="M67.9354 27.1045H54.4791V40.6657V54.2206V67.7818V67.7882H67.9354V67.7818H81.3917V81.3494H54.4855V94.9107H94.8479V94.8979V27.1045H81.3917H67.9354ZM67.9354 54.2206V40.6657H81.3917V54.2206H67.9354Z" fill="#1F2937"/>
<path d="M41.0291 27.1045H27.5729V94.8915H41.0291V27.1045Z" fill="#1F2937"/>
<path d="M148.667 108.446V40.6716H135.21V108.446H14.1293V122.001H148.667V108.446Z" fill="#1F2937"/>
<path d="M94.8352 13.5612V0H14.123H0.673028H0.666687V122H14.123V13.5612H94.8352Z" fill="#1F2937"/>
<path d="M108.304 0V13.5612H135.21V27.1097H148.667V13.5612V0.00639078V0H108.304Z" fill="#E6007E"/>
</g>
<defs>
<clipPath id="clip0_32777_864">
<rect width="148" height="122" fill="white" transform="translate(0.666687)"/>
</clipPath>
</defs>
</svg>
