<svg width="174" height="192" viewBox="0 0 174 192" fill="none" xmlns="http://www.w3.org/2000/svg">
<g clip-path="url(#clip0_32648_37668)">
<g clip-path="url(#clip1_32648_37668)">
<path d="M130.153 17.7971L87.0305 0.0590515L43.8848 17.76L26.0001 60.5289L43.8474 103.321L86.9697 121.064L130.115 103.363L148.005 60.5892L130.153 17.7971ZM67.0049 97.1827L86.9697 91.1556L106.953 97.1827L86.9744 116.979L67.0049 97.1827ZM106.995 23.9308L86.9978 29.9579L67.033 23.9308L87.0258 4.11108L106.995 23.9308ZM109.552 94.5957L92.5979 89.4959L110.665 84.0622L116.139 66.2129L121.281 83.0005L109.552 94.5957ZM108.042 81.4428L86.9697 87.7805L65.9064 81.4289L59.535 60.5985L65.9578 39.6707L86.9931 33.3423L108.028 39.6892L114.432 60.6217L108.042 81.4428ZM64.4293 26.5317L81.3697 31.6315L63.3354 37.0651L57.8289 55.0119L52.6869 38.1732L64.4293 26.5317ZM110.655 37.0883L92.6259 31.6501L109.571 26.5503L121.309 38.2057L116.167 55.0397L110.655 37.0883ZM50.0505 40.7509L56.1273 60.5938L50.0505 80.3579L30.0856 60.5336L50.0505 40.7509ZM57.8242 66.1804L63.284 84.0298L81.3416 89.4773L64.3825 94.5771L52.6962 82.9542L57.8242 66.1804ZM123.903 80.4136L117.85 60.6263L123.926 40.7602L143.896 60.5846L123.903 80.4136ZM141.573 53.6674L94.0002 6.43845L127.657 20.2821L141.573 53.6674ZM46.3903 20.245L80.0468 6.43382L32.4322 53.6164L46.3903 20.245ZM32.4276 67.4508L48.9753 83.8768L63.4663 98.249L80.0094 114.675L46.3529 100.831L32.4276 67.4508ZM127.61 100.873L93.9535 114.684L141.568 67.5018L127.61 100.873Z" fill="#17B691"/>
</g>
<path d="M42.8859 191.941L52.4459 168.15L53.9054 164.356C54.0514 164.793 54.1973 165.304 54.4163 165.742L64.9979 191.868C65.1439 191.868 65.3628 191.795 65.4358 191.795C65.5817 191.795 65.7277 191.722 65.9466 191.649C66.0926 191.576 66.3115 191.576 66.6034 191.503C66.8953 191.43 67.2602 191.357 67.698 191.211L53.9054 157.204L40.1858 191.357C41.0615 191.576 41.7183 191.722 42.0832 191.795C42.3751 191.795 42.667 191.868 42.8859 191.941Z" fill="#3FB274"/>
<path d="M52.227 176.033L51.2053 178.66H56.5326C56.2407 177.857 55.8758 176.982 55.511 176.033H52.227Z" fill="#3FB274"/>
<path d="M19.46 158.379V161.298H3.69705V170.712H16.1031V173.631H3.69705V191.438H0.850952V158.379H19.46Z" fill="#A7A9AC"/>
<path d="M120.679 157.132V191.358H117.832V165.378L106.448 179.463L94.9907 165.232V191.358H92.1447V157.059L106.375 174.792L120.679 157.132Z" fill="#A7A9AC"/>
<path d="M159.357 157.204L173.149 191.211C172.712 191.357 172.347 191.43 172.055 191.503C171.763 191.576 171.544 191.649 171.398 191.649C171.252 191.722 171.106 191.722 170.887 191.795C170.741 191.795 170.595 191.868 170.376 191.868L164.83 178.732H153.811L151.183 185.081C150.746 186.176 150.235 187.343 149.724 188.511C149.213 189.678 148.775 190.846 148.337 191.941C148.118 191.868 147.826 191.795 147.462 191.722C147.097 191.649 146.513 191.503 145.564 191.284L159.357 157.204ZM163.662 176.105C163.298 174.937 162.714 173.405 161.984 171.434C161.254 169.464 160.378 167.129 159.357 164.356L154.832 176.105H163.662Z" fill="#A7A9AC"/>
</g>
<defs>
<clipPath id="clip0_32648_37668">
<rect width="172.298" height="191.882" fill="white" transform="translate(0.850952 0.0590515)"/>
</clipPath>
<clipPath id="clip1_32648_37668">
<rect width="122" height="121" fill="white" transform="translate(26.0001 0.0590515)"/>
</clipPath>
</defs>
</svg>
