<svg width="186" height="60" viewBox="0 0 186 60" fill="none" xmlns="http://www.w3.org/2000/svg">
<path fill-rule="evenodd" clip-rule="evenodd" d="M7.81437 50.742C8.77613 48.9693 10.9929 48.3119 12.7656 49.2737C15.8634 50.9544 19.4129 51.9104 23.1966 51.9104C26.9802 51.9104 30.5297 50.9544 33.6276 49.2737C35.4003 48.3119 37.617 48.9693 38.5787 50.742C39.5405 52.5147 38.8831 54.7314 37.1104 55.6932C32.97 57.9395 28.2266 59.2138 23.1966 59.2138C18.1665 59.2138 13.4231 57.9395 9.28271 55.6932C7.51 54.7314 6.85261 52.5147 7.81437 50.742Z" fill="url(#paint0_linear_32618_37502)"/>
<path fill-rule="evenodd" clip-rule="evenodd" d="M23.1966 47.0413C35.9696 47.0413 46.3242 36.6868 46.3242 23.9137C46.3242 23.6507 46.3198 23.3888 46.3111 23.1279C46.3197 23.0258 46.324 22.9225 46.324 22.8182V4.43786C46.324 2.42107 44.6891 0.786133 42.6723 0.786133C40.6555 0.786133 39.0206 2.42107 39.0206 4.43786V7.04689C34.8837 3.16421 29.3178 0.786133 23.1966 0.786133C10.4236 0.786133 0.0689697 11.1407 0.0689697 23.9137C0.0689697 36.6868 10.4236 47.0413 23.1966 47.0413ZM39.0207 23.9137C39.0207 32.6532 31.936 39.7379 23.1966 39.7379C14.4571 39.7379 7.37242 32.6532 7.37242 23.9137C7.37242 15.1743 14.4571 8.08959 23.1966 8.08959C31.936 8.08959 39.0207 15.1743 39.0207 23.9137Z" fill="url(#paint1_linear_32618_37502)"/>
<path d="M68.6692 25.4536H68.5049C68.3953 25.7214 68.2614 25.977 68.1032 26.2204C67.9449 26.4639 67.7502 26.683 67.5189 26.8777C67.2876 27.0603 67.0138 27.2064 66.6973 27.3159C66.393 27.4255 66.046 27.4803 65.6565 27.4803C65.0357 27.4803 64.4819 27.3342 63.995 27.0421C63.5203 26.7499 63.1186 26.3239 62.7899 25.764C62.4613 25.204 62.2117 24.5224 62.0413 23.719C61.8831 22.9156 61.804 22.0088 61.804 20.9985C61.804 18.8318 62.1996 17.1763 62.9908 16.0321C63.782 14.8757 65.0053 14.2975 66.6608 14.2975C67.3181 14.2975 67.8963 14.3888 68.3953 14.5714C68.8944 14.7418 69.3204 14.9914 69.6734 15.32C70.0386 15.6365 70.3368 16.0199 70.5681 16.4703C70.7994 16.9207 70.982 17.4198 71.1159 17.9675L68.5597 18.5883C68.4866 18.3205 68.4014 18.0649 68.304 17.8214C68.2188 17.5658 68.1032 17.3406 67.9571 17.1459C67.811 16.9511 67.6285 16.799 67.4094 16.6894C67.1903 16.5677 66.9225 16.5068 66.606 16.5068C65.9121 16.5068 65.4192 16.7929 65.127 17.365C64.8471 17.9371 64.7071 18.7405 64.7071 19.7751V21.8566C64.7071 22.8913 64.8592 23.719 65.1635 24.3398C65.48 24.9606 66.0339 25.271 66.8251 25.271C67.4459 25.271 67.9084 25.0884 68.2127 24.7232C68.517 24.358 68.6692 23.8894 68.6692 23.3173V22.3861H66.4964V20.4507H71.1159V27.2612H68.6692V25.4536ZM77.8462 27.4803C76.2638 27.4803 75.0648 27.0421 74.2492 26.1657C73.4337 25.2892 73.0259 24.0963 73.0259 22.587C73.0259 21.8201 73.1294 21.1323 73.3363 20.5237C73.5554 19.9029 73.8597 19.3795 74.2492 18.9535C74.6509 18.5153 75.1317 18.1866 75.6916 17.9675C76.2638 17.7362 76.9028 17.6206 77.6088 17.6206C78.3148 17.6206 78.9478 17.7362 79.5077 17.9675C80.0676 18.1866 80.5424 18.5031 80.9319 18.917C81.3214 19.3308 81.6196 19.836 81.8266 20.4324C82.0457 21.0167 82.1552 21.674 82.1552 22.4044V23.2077H75.7099V23.3721C75.7099 23.9807 75.8986 24.4737 76.2759 24.851C76.6533 25.2162 77.2071 25.3988 77.9375 25.3988C78.4974 25.3988 78.9782 25.2953 79.3799 25.0884C79.7816 24.8693 80.1285 24.5832 80.4206 24.2302L81.8813 25.8187C81.5162 26.2691 81.0049 26.6586 80.3476 26.9873C79.6903 27.3159 78.8565 27.4803 77.8462 27.4803ZM77.6271 19.556C77.0428 19.556 76.5742 19.7386 76.2212 20.1038C75.8803 20.4568 75.7099 20.9376 75.7099 21.5462V21.6923H79.5077V21.5462C79.5077 20.9254 79.3373 20.4385 78.9965 20.0855C78.6678 19.7325 78.2113 19.556 77.6271 19.556ZM89.269 27.2612C88.2952 27.2612 87.5709 27.0055 87.0962 26.4943C86.6214 25.9831 86.3841 25.3318 86.3841 24.5406V19.9395H83.8279V17.8397H85.4894C85.8911 17.8397 86.1772 17.7606 86.3476 17.6023C86.518 17.4441 86.6032 17.152 86.6032 16.7259V14.5166H89.0864V17.8397H92.7564V19.9395H89.0864V25.1614H92.7564V27.2612H89.269ZM112.041 21.9296H108.828V27.2612H106.071V14.5166H108.828V19.6838H112.041V14.5166H114.799V27.2612H112.041V21.9296ZM121.967 16.6346C121.358 16.6346 120.932 16.5129 120.689 16.2695C120.458 16.0138 120.342 15.7095 120.342 15.3565V14.827C120.342 14.4619 120.458 14.1575 120.689 13.9141C120.932 13.6706 121.358 13.5489 121.967 13.5489C122.576 13.5489 122.996 13.6706 123.227 13.9141C123.47 14.1575 123.592 14.4619 123.592 14.827V15.3565C123.592 15.7095 123.47 16.0138 123.227 16.2695C122.996 16.5129 122.576 16.6346 121.967 16.6346ZM117.621 25.1614H120.616V19.9395H117.621V17.8397H123.318V25.1614H126.094V27.2612H117.621V25.1614ZM128.204 25.1614H130.377V19.9395H128.204V17.8397H133.079V20.5055H133.207C133.292 20.1646 133.408 19.836 133.554 19.5195C133.712 19.1908 133.907 18.9048 134.138 18.6613C134.382 18.4057 134.674 18.2049 135.015 18.0588C135.356 17.9127 135.757 17.8397 136.22 17.8397H137.115V20.3229H135.106C134.437 20.3229 133.932 20.5237 133.591 20.9254C133.25 21.3149 133.079 21.7957 133.079 22.3679V25.1614H136.183V27.2612H128.204V25.1614ZM143.535 27.4803C141.952 27.4803 140.753 27.0421 139.938 26.1657C139.122 25.2892 138.714 24.0963 138.714 22.587C138.714 21.8201 138.818 21.1323 139.025 20.5237C139.244 19.9029 139.548 19.3795 139.938 18.9535C140.339 18.5153 140.82 18.1866 141.38 17.9675C141.952 17.7362 142.591 17.6206 143.297 17.6206C144.003 17.6206 144.636 17.7362 145.196 17.9675C145.756 18.1866 146.231 18.5031 146.62 18.917C147.01 19.3308 147.308 19.836 147.515 20.4324C147.734 21.0167 147.844 21.674 147.844 22.4044V23.2077H141.398V23.3721C141.398 23.9807 141.587 24.4737 141.964 24.851C142.342 25.2162 142.895 25.3988 143.626 25.3988C144.186 25.3988 144.667 25.2953 145.068 25.0884C145.47 24.8693 145.817 24.5832 146.109 24.2302L147.57 25.8187C147.204 26.2691 146.693 26.6586 146.036 26.9873C145.379 27.3159 144.545 27.4803 143.535 27.4803ZM143.315 19.556C142.731 19.556 142.262 19.7386 141.909 20.1038C141.569 20.4568 141.398 20.9376 141.398 21.5462V21.6923H145.196V21.5462C145.196 20.9254 145.026 20.4385 144.685 20.0855C144.356 19.7325 143.9 19.556 143.315 19.556ZM155.925 25.5449H155.797C155.554 26.117 155.213 26.5856 154.775 26.9508C154.349 27.3038 153.758 27.4803 153.004 27.4803C152.48 27.4803 151.999 27.3829 151.561 27.1881C151.135 26.9934 150.764 26.6952 150.447 26.2935C150.143 25.8918 149.9 25.3805 149.717 24.7597C149.547 24.1389 149.461 23.4025 149.461 22.5504C149.461 21.6984 149.547 20.9619 149.717 20.3411C149.9 19.7203 150.143 19.2091 150.447 18.8074C150.764 18.4057 151.135 18.1075 151.561 17.9127C151.999 17.718 152.48 17.6206 153.004 17.6206C153.381 17.6206 153.716 17.6693 154.008 17.7667C154.3 17.8641 154.556 17.9979 154.775 18.1684C155.006 18.3388 155.201 18.5457 155.359 18.7892C155.529 19.0204 155.675 19.2761 155.797 19.556H155.925V13.7498H158.627V27.2612H155.925V25.5449ZM154.172 25.3805C154.647 25.3805 155.055 25.2649 155.395 25.0336C155.748 24.8023 155.925 24.4372 155.925 23.9381V21.1628C155.925 20.6637 155.748 20.2985 155.395 20.0673C155.055 19.836 154.647 19.7203 154.172 19.7203C153.564 19.7203 153.095 19.909 152.766 20.2864C152.438 20.6515 152.273 21.1628 152.273 21.8201V23.2808C152.273 23.9381 152.438 24.4554 152.766 24.8328C153.095 25.1979 153.564 25.3805 154.172 25.3805Z" fill="#43D59E"/>
<path d="M64.2919 48.8702C63.6054 48.8702 63.043 48.7461 62.6048 48.4978C62.1666 48.2421 61.805 47.9171 61.5202 47.5227L62.1885 46.975C62.4879 47.3475 62.802 47.625 63.1306 47.8076C63.4666 47.9902 63.8646 48.0815 64.3247 48.0815C64.8798 48.0815 65.3034 47.9536 65.5955 47.698C65.8877 47.4424 66.0338 47.0845 66.0338 46.6244C66.0338 46.2519 65.9279 45.9635 65.7161 45.759C65.5043 45.5472 65.1354 45.3974 64.6096 45.3098L63.7551 45.1674C63.3826 45.1016 63.0685 45.0031 62.8129 44.8716C62.5646 44.7401 62.3638 44.5831 62.2104 44.4005C62.057 44.2106 61.9475 44.0061 61.8817 43.787C61.816 43.5606 61.7831 43.3269 61.7831 43.0859C61.7831 42.3848 62.0132 41.8553 62.4733 41.4974C62.9334 41.1395 63.5542 40.9606 64.3357 40.9606C64.9492 40.9606 65.4641 41.0628 65.8804 41.2673C66.304 41.4718 66.6436 41.7603 66.8992 42.1328L66.2529 42.6915C66.0411 42.414 65.7854 42.1876 65.486 42.0123C65.1865 41.837 64.7995 41.7494 64.3247 41.7494C63.8062 41.7494 63.4082 41.8589 63.1306 42.078C62.8531 42.2971 62.7143 42.6258 62.7143 43.064C62.7143 43.4072 62.8166 43.6884 63.0211 43.9075C63.2329 44.1193 63.609 44.2727 64.1495 44.3676L64.9711 44.5101C65.3436 44.5758 65.6576 44.6744 65.9132 44.8059C66.1689 44.9373 66.3734 45.0943 66.5267 45.2769C66.6874 45.4595 66.8006 45.664 66.8663 45.8904C66.9321 46.1168 66.9649 46.3542 66.9649 46.6025C66.9649 47.3109 66.7312 47.866 66.2638 48.2677C65.8037 48.6694 65.1464 48.8702 64.2919 48.8702ZM71.2332 41.837C70.9776 41.837 70.7986 41.7859 70.6964 41.6836C70.5941 41.5741 70.543 41.439 70.543 41.2783V41.103C70.543 40.9423 70.5941 40.8109 70.6964 40.7086C70.7986 40.5991 70.9776 40.5443 71.2332 40.5443C71.4888 40.5443 71.6677 40.5991 71.77 40.7086C71.8722 40.8109 71.9234 40.9423 71.9234 41.103V41.2783C71.9234 41.439 71.8722 41.5741 71.77 41.6836C71.6677 41.7859 71.4888 41.837 71.2332 41.837ZM68.7573 47.9938H70.795V43.8308H68.7573V43.0859H71.6714V47.9938H73.5776V48.7388H68.7573V47.9938ZM74.7565 48.7388V43.0859H75.5672V43.7432H75.611C75.6986 43.5241 75.8228 43.3379 75.9835 43.1845C76.1441 43.0311 76.3815 42.9544 76.6955 42.9544C77.0242 42.9544 77.2689 43.0384 77.4295 43.2064C77.5902 43.3671 77.6888 43.5789 77.7253 43.8418H77.7582C77.8604 43.5862 78.0065 43.3744 78.1964 43.2064C78.3863 43.0384 78.6492 42.9544 78.9852 42.9544C79.4453 42.9544 79.752 43.1151 79.9054 43.4365C80.0661 43.7578 80.1464 44.2179 80.1464 44.8168V48.7388H79.3357V44.9592C79.3357 44.4772 79.2846 44.1449 79.1824 43.9623C79.0874 43.7724 78.9085 43.6775 78.6456 43.6775C78.4119 43.6775 78.222 43.7542 78.0759 43.9075C77.9298 44.0536 77.8568 44.28 77.8568 44.5868V48.7388H77.0461V44.9592C77.0461 44.4772 76.995 44.1449 76.8927 43.9623C76.7978 43.7724 76.6225 43.6775 76.3669 43.6775C76.1332 43.6775 75.9396 43.7542 75.7863 43.9075C75.6402 44.0536 75.5672 44.28 75.5672 44.5868V48.7388H74.7565ZM81.7745 43.0859H82.6509V44.0061H82.6947C83.0599 43.305 83.6405 42.9544 84.4366 42.9544C85.1304 42.9544 85.6709 43.2137 86.058 43.7322C86.4523 44.2508 86.6495 44.9775 86.6495 45.9123C86.6495 46.8472 86.4523 47.5739 86.058 48.0924C85.6709 48.611 85.1304 48.8702 84.4366 48.8702C83.6405 48.8702 83.0599 48.5197 82.6947 47.8185H82.6509V50.9298H81.7745V43.0859ZM84.097 48.0924C84.6082 48.0924 85.0026 47.939 85.2801 47.6323C85.565 47.3182 85.7074 46.9056 85.7074 46.3944V45.4303C85.7074 44.9191 85.565 44.5101 85.2801 44.2033C85.0026 43.8893 84.6082 43.7322 84.097 43.7322C83.8998 43.7322 83.7135 43.7578 83.5383 43.8089C83.363 43.8601 83.2096 43.9367 83.0781 44.039C82.9467 44.1339 82.8408 44.2544 82.7604 44.4005C82.6874 44.5393 82.6509 44.7036 82.6509 44.8935V46.9312C82.6509 47.1211 82.6874 47.289 82.7604 47.4351C82.8408 47.5739 82.9467 47.6944 83.0781 47.7966C83.2096 47.8916 83.363 47.9646 83.5383 48.0157C83.7135 48.0669 83.8998 48.0924 84.097 48.0924ZM88.179 47.9938H90.1509V41.3769H88.179V40.6319H91.0273V47.9938H92.9993V48.7388H88.179V47.9938ZM98.9875 43.0859H99.8639L97.0594 49.9767C96.9936 50.1374 96.9206 50.2761 96.8403 50.393C96.7599 50.5172 96.665 50.6158 96.5554 50.6888C96.4459 50.7691 96.3144 50.8276 96.161 50.8641C96.0077 50.9079 95.8251 50.9298 95.6133 50.9298H94.7807V50.1849H96.0953L96.7307 48.6292L94.452 43.0859H95.3503L96.3035 45.4522L97.147 47.5994H97.1908L98.0344 45.4522L98.9875 43.0859ZM107.973 41.092H110.57C111.227 41.092 111.742 41.271 112.114 41.6289C112.487 41.9867 112.673 42.4651 112.673 43.064C112.673 43.5241 112.56 43.8856 112.333 44.1485C112.114 44.4115 111.829 44.5977 111.479 44.7073V44.7401C111.91 44.8424 112.264 45.0359 112.541 45.3208C112.819 45.5983 112.958 46.0036 112.958 46.5368C112.958 46.8435 112.907 47.132 112.804 47.4022C112.702 47.6725 112.556 47.9062 112.366 48.1034C112.184 48.3006 111.964 48.4576 111.709 48.5744C111.461 48.684 111.19 48.7388 110.898 48.7388H107.973V41.092ZM110.624 47.939C111.048 47.939 111.38 47.8441 111.621 47.6542C111.862 47.4643 111.983 47.1722 111.983 46.7778V46.3286C111.983 45.9415 111.862 45.6531 111.621 45.4632C111.38 45.266 111.048 45.1674 110.624 45.1674H108.893V47.939H110.624ZM110.471 44.4115C110.858 44.4115 111.161 44.3275 111.38 44.1595C111.599 43.9842 111.709 43.7213 111.709 43.3707V42.9435C111.709 42.5929 111.599 42.33 111.38 42.1547C111.161 41.9794 110.858 41.8918 110.471 41.8918H108.893V44.4115H110.471ZM116.963 48.8702C116.554 48.8702 116.185 48.8008 115.857 48.6621C115.535 48.5233 115.258 48.3261 115.024 48.0705C114.798 47.8076 114.622 47.4972 114.498 47.1393C114.374 46.7741 114.312 46.3688 114.312 45.9233C114.312 45.4705 114.374 45.0615 114.498 44.6963C114.63 44.3311 114.809 44.0207 115.035 43.7651C115.261 43.5022 115.532 43.3013 115.846 43.1626C116.167 43.0238 116.521 42.9544 116.908 42.9544C117.288 42.9544 117.631 43.0238 117.938 43.1626C118.252 43.3013 118.519 43.4949 118.738 43.7432C118.957 43.9842 119.125 44.2727 119.242 44.6087C119.359 44.9446 119.417 45.3134 119.417 45.7151V46.1314H115.232V46.3944C115.232 46.6427 115.272 46.8727 115.353 47.0845C115.433 47.2963 115.546 47.4789 115.692 47.6323C115.846 47.7857 116.028 47.9062 116.24 47.9938C116.459 48.0742 116.7 48.1143 116.963 48.1143C117.343 48.1143 117.671 48.0267 117.949 47.8514C118.227 47.6761 118.438 47.4351 118.584 47.1284L119.231 47.5666C119.063 47.9463 118.782 48.2604 118.387 48.5087C118 48.7497 117.525 48.8702 116.963 48.8702ZM116.908 43.6775C116.667 43.6775 116.445 43.7213 116.24 43.8089C116.036 43.8966 115.857 44.0171 115.703 44.1705C115.557 44.3238 115.44 44.5064 115.353 44.7182C115.272 44.9227 115.232 45.1491 115.232 45.3974V45.4741H118.475V45.3536C118.475 45.1053 118.435 44.8789 118.354 44.6744C118.281 44.4699 118.175 44.2946 118.037 44.1485C117.905 43.9952 117.741 43.8783 117.544 43.798C117.354 43.7176 117.142 43.6775 116.908 43.6775ZM129.542 48.7388V45.737L126.902 41.092H127.954L129.049 43.0859L129.98 44.8278H130.024L130.977 43.0859L132.073 41.092H133.102L130.462 45.737V48.7388H129.542ZM136.571 48.8702C136.177 48.8702 135.819 48.8008 135.497 48.6621C135.183 48.5233 134.913 48.3261 134.687 48.0705C134.468 47.8076 134.3 47.4972 134.183 47.1393C134.066 46.7741 134.007 46.3651 134.007 45.9123C134.007 45.4668 134.066 45.0615 134.183 44.6963C134.3 44.3311 134.468 44.0207 134.687 43.7651C134.913 43.5022 135.183 43.3013 135.497 43.1626C135.819 43.0238 136.177 42.9544 136.571 42.9544C136.965 42.9544 137.32 43.0238 137.634 43.1626C137.955 43.3013 138.225 43.5022 138.444 43.7651C138.671 44.0207 138.842 44.3311 138.959 44.6963C139.076 45.0615 139.134 45.4668 139.134 45.9123C139.134 46.3651 139.076 46.7741 138.959 47.1393C138.842 47.4972 138.671 47.8076 138.444 48.0705C138.225 48.3261 137.955 48.5233 137.634 48.6621C137.32 48.8008 136.965 48.8702 136.571 48.8702ZM136.571 48.1143C137.06 48.1143 137.455 47.9683 137.754 47.6761C138.054 47.384 138.203 46.9312 138.203 46.3177V45.507C138.203 44.8935 138.054 44.4407 137.754 44.1485C137.455 43.8564 137.06 43.7103 136.571 43.7103C136.082 43.7103 135.687 43.8564 135.388 44.1485C135.088 44.4407 134.939 44.8935 134.939 45.507V46.3177C134.939 46.9312 135.088 47.384 135.388 47.6761C135.687 47.9683 136.082 48.1143 136.571 48.1143ZM144.476 47.8185H144.433C144.374 47.9573 144.301 48.0924 144.213 48.2239C144.126 48.348 144.016 48.4576 143.885 48.5525C143.761 48.6475 143.611 48.7242 143.436 48.7826C143.26 48.841 143.056 48.8702 142.822 48.8702C142.231 48.8702 141.756 48.684 141.398 48.3115C141.04 47.9317 140.861 47.3986 140.861 46.7121V43.0859H141.738V46.5587C141.738 47.0772 141.851 47.4643 142.077 47.7199C142.304 47.9683 142.636 48.0924 143.074 48.0924C143.249 48.0924 143.421 48.0705 143.589 48.0267C143.757 47.9829 143.907 47.9171 144.038 47.8295C144.17 47.7418 144.275 47.6323 144.356 47.5008C144.436 47.3621 144.476 47.1977 144.476 47.0078V43.0859H145.353V48.7388H144.476V47.8185ZM147.266 47.9938H148.92V43.8308H147.266V43.0859H149.796V44.5101H149.851C149.968 44.0646 150.187 43.7176 150.508 43.4693C150.837 43.2137 151.253 43.0859 151.757 43.0859H152.546V43.9623H151.483C150.979 43.9623 150.57 44.1084 150.256 44.4005C149.95 44.6927 149.796 45.0761 149.796 45.5508V47.9938H151.987V48.7388H147.266V47.9938ZM160.524 41.092H163.12C163.777 41.092 164.292 41.271 164.665 41.6289C165.037 41.9867 165.224 42.4651 165.224 43.064C165.224 43.5241 165.11 43.8856 164.884 44.1485C164.665 44.4115 164.38 44.5977 164.029 44.7073V44.7401C164.46 44.8424 164.815 45.0359 165.092 45.3208C165.37 45.5983 165.508 46.0036 165.508 46.5368C165.508 46.8435 165.457 47.132 165.355 47.4022C165.253 47.6725 165.107 47.9062 164.917 48.1034C164.734 48.3006 164.515 48.4576 164.26 48.5744C164.011 48.684 163.741 48.7388 163.449 48.7388H160.524V41.092ZM163.175 47.939C163.599 47.939 163.931 47.8441 164.172 47.6542C164.413 47.4643 164.533 47.1722 164.533 46.7778V46.3286C164.533 45.9415 164.413 45.6531 164.172 45.4632C163.931 45.266 163.599 45.1674 163.175 45.1674H161.444V47.939H163.175ZM163.022 44.4115C163.409 44.4115 163.712 44.3275 163.931 44.1595C164.15 43.9842 164.26 43.7213 164.26 43.3707V42.9435C164.26 42.5929 164.15 42.33 163.931 42.1547C163.712 41.9794 163.409 41.8918 163.022 41.8918H161.444V44.4115H163.022ZM169.514 48.8702C169.105 48.8702 168.736 48.8008 168.407 48.6621C168.086 48.5233 167.808 48.3261 167.575 48.0705C167.348 47.8076 167.173 47.4972 167.049 47.1393C166.925 46.7741 166.863 46.3688 166.863 45.9233C166.863 45.4705 166.925 45.0615 167.049 44.6963C167.18 44.3311 167.359 44.0207 167.586 43.7651C167.812 43.5022 168.082 43.3013 168.396 43.1626C168.718 43.0238 169.072 42.9544 169.459 42.9544C169.839 42.9544 170.182 43.0238 170.489 43.1626C170.803 43.3013 171.069 43.4949 171.288 43.7432C171.508 43.9842 171.676 44.2727 171.792 44.6087C171.909 44.9446 171.968 45.3134 171.968 45.7151V46.1314H167.783V46.3944C167.783 46.6427 167.823 46.8727 167.903 47.0845C167.984 47.2963 168.097 47.4789 168.243 47.6323C168.396 47.7857 168.579 47.9062 168.791 47.9938C169.01 48.0742 169.251 48.1143 169.514 48.1143C169.894 48.1143 170.222 48.0267 170.5 47.8514C170.777 47.6761 170.989 47.4351 171.135 47.1284L171.781 47.5666C171.613 47.9463 171.332 48.2604 170.938 48.5087C170.551 48.7497 170.076 48.8702 169.514 48.8702ZM169.459 43.6775C169.218 43.6775 168.995 43.7213 168.791 43.8089C168.586 43.8966 168.407 44.0171 168.254 44.1705C168.108 44.3238 167.991 44.5064 167.903 44.7182C167.823 44.9227 167.783 45.1491 167.783 45.3974V45.4741H171.026V45.3536C171.026 45.1053 170.985 44.8789 170.905 44.6744C170.832 44.4699 170.726 44.2946 170.587 44.1485C170.456 43.9952 170.292 43.8783 170.094 43.798C169.904 43.7176 169.693 43.6775 169.459 43.6775ZM176.05 48.8702C175.458 48.8702 174.947 48.7716 174.516 48.5744C174.092 48.3699 173.731 48.0997 173.431 47.7638L174.023 47.2489C174.293 47.5337 174.589 47.7528 174.91 47.9062C175.232 48.0595 175.619 48.1362 176.072 48.1362C176.51 48.1362 176.868 48.0595 177.145 47.9062C177.43 47.7455 177.572 47.4972 177.572 47.1612C177.572 47.0152 177.543 46.8946 177.485 46.7997C177.434 46.6975 177.361 46.6171 177.266 46.5587C177.171 46.5003 177.065 46.4564 176.948 46.4272C176.831 46.3907 176.707 46.3615 176.576 46.3396L175.688 46.2081C175.491 46.1789 175.276 46.1387 175.042 46.0876C174.815 46.0365 174.607 45.9562 174.417 45.8466C174.227 45.7297 174.067 45.5764 173.935 45.3865C173.811 45.1966 173.749 44.9483 173.749 44.6415C173.749 44.3567 173.804 44.112 173.913 43.9075C174.03 43.6957 174.191 43.5204 174.395 43.3817C174.6 43.2356 174.841 43.1297 175.118 43.064C175.396 42.9909 175.699 42.9544 176.028 42.9544C176.539 42.9544 176.981 43.0348 177.353 43.1954C177.733 43.3561 178.058 43.5789 178.328 43.8637L177.759 44.4005C177.693 44.3202 177.609 44.2398 177.507 44.1595C177.412 44.0719 177.291 43.9952 177.145 43.9294C177.006 43.8564 176.842 43.798 176.652 43.7542C176.462 43.7103 176.243 43.6884 175.995 43.6884C175.549 43.6884 175.206 43.7651 174.965 43.9185C174.731 44.0719 174.615 44.2946 174.615 44.5868C174.615 44.7328 174.64 44.857 174.691 44.9592C174.75 45.0542 174.826 45.1309 174.921 45.1893C175.016 45.2477 175.122 45.2952 175.239 45.3317C175.363 45.3609 175.487 45.3865 175.611 45.4084L176.499 45.5399C176.703 45.5691 176.919 45.6092 177.145 45.6604C177.372 45.7115 177.58 45.7955 177.77 45.9123C177.96 46.0219 178.117 46.1716 178.241 46.3615C178.372 46.5514 178.438 46.7997 178.438 47.1064C178.438 47.6688 178.219 48.1034 177.781 48.4101C177.35 48.7169 176.773 48.8702 176.05 48.8702ZM182.827 48.7388C182.396 48.7388 182.078 48.6183 181.874 48.3772C181.676 48.1362 181.578 47.8258 181.578 47.4461V43.8308H179.693V43.0859H181.096C181.286 43.0859 181.417 43.0494 181.49 42.9763C181.57 42.896 181.611 42.7609 181.611 42.571V41.092H182.454V43.0859H185.029V43.8308H182.454V47.9938H185.029V48.7388H182.827Z" fill="#1DCC8B"/>
<defs>
<linearGradient id="paint0_linear_32618_37502" x1="23.7692" y1="46.4381" x2="23.7305" y2="59.2155" gradientUnits="userSpaceOnUse">
<stop stop-color="#D2F5E8"/>
<stop offset="0.776682" stop-color="#1DCC8B"/>
</linearGradient>
<linearGradient id="paint1_linear_32618_37502" x1="24.0334" y1="-9.87425" x2="23.5089" y2="47.0442" gradientUnits="userSpaceOnUse">
<stop stop-color="#D2F5E8"/>
<stop offset="0.776682" stop-color="#1DCC8B"/>
</linearGradient>
</defs>
</svg>
