<svg width="362" height="54" viewBox="0 0 362 54" fill="none" xmlns="http://www.w3.org/2000/svg">
<path d="M37.9417 0H0.872131V37.198C0.872131 44.6696 6.90829 50.7226 14.3501 50.7226H37.9376C45.3835 50.7226 51.4156 44.6655 51.4156 37.198V13.5288C51.4156 6.05711 45.3794 0.0041161 37.9376 0.0041161L37.9417 0ZM44.2524 33.2339C40.6831 40.0888 33.6512 44.4147 25.9389 44.4147C25.8283 44.4147 25.7217 44.4147 25.6111 44.4147C18.0505 44.2954 11.1251 39.9448 7.62546 33.2339C5.85107 33.0119 4.52741 31.3341 4.92081 29.4179C5.16258 28.2418 6.09699 27.2755 7.26079 27.0041C9.33842 26.523 11.1865 28.0938 11.1865 30.0964C11.1865 30.6515 11.0308 31.1655 10.7808 31.622C13.6862 37.1692 19.4151 40.759 25.6644 40.8577C32.1268 40.9605 38.0851 37.3665 41.093 31.6178C40.6955 30.8941 40.5398 30.0183 40.8635 29.0643C41.2242 28.0074 42.1379 27.185 43.232 26.9753C45.2523 26.5887 47.0226 28.1349 47.0226 30.0964C47.0226 31.7166 45.8097 33.0365 44.2484 33.2339H44.2524Z" fill="#82AAFF"/>
<path d="M86.3381 31.0321C88.178 30.1685 89.5835 28.9226 90.5588 27.2983C91.53 25.674 92.0177 23.729 92.0177 21.4673C92.0177 19.2057 91.5383 17.2566 90.5834 15.5871C89.6286 13.9176 88.2395 12.6264 86.4241 11.7094C84.6047 10.7965 82.4164 10.3359 79.8511 10.3359H66.4551V44.4046H73.6346V32.3274H78.8758L85.3054 44.4046H93.2307L86.0266 31.1678C86.1332 31.1225 86.2397 31.0814 86.3422 31.0321H86.3381ZM73.6305 16.2285H78.47C79.851 16.2285 80.9985 16.4301 81.9082 16.8372C82.818 17.2402 83.4982 17.8323 83.949 18.6095C84.3956 19.3866 84.621 20.3406 84.621 21.4714C84.621 22.6023 84.3956 23.5275 83.949 24.2842C83.5023 25.0367 82.8221 25.6041 81.9164 25.9824C81.0108 26.3608 79.8716 26.5499 78.5029 26.5499H73.6305V16.2368V16.2285Z" fill="#82AAFF"/>
<path d="M116.363 21.7553C115.273 20.678 114.003 19.872 112.552 19.3333C111.097 18.7946 109.532 18.5273 107.852 18.5273C105.352 18.5273 103.18 19.0824 101.328 20.1927C99.4756 21.303 98.0413 22.8491 97.025 24.8353C96.0087 26.8214 95.5006 29.1283 95.5006 31.7559C95.5006 34.3835 96.0087 36.7809 97.025 38.7506C98.0413 40.7202 99.492 42.2376 101.377 43.3068C103.262 44.3759 105.512 44.9105 108.13 44.9105C110.228 44.9105 112.085 44.5856 113.691 43.9359C115.298 43.2862 116.613 42.3774 117.637 41.2096C118.658 40.0376 119.338 38.6684 119.67 37.0934L113.138 36.6616C112.896 37.3031 112.54 37.85 112.077 38.29C111.614 38.7341 111.056 39.0672 110.401 39.2893C109.749 39.5113 109.032 39.6223 108.245 39.6223C107.061 39.6223 106.04 39.3715 105.18 38.8739C104.319 38.3764 103.651 37.665 103.18 36.7439C102.709 35.8227 102.475 34.7331 102.475 33.4665V33.4501H119.818V31.5051C119.818 29.3298 119.514 27.4341 118.908 25.8057C118.301 24.1814 117.453 22.8327 116.363 21.7553ZM102.488 29.0584C102.529 28.1414 102.762 27.2984 103.192 26.5377C103.655 25.7112 104.299 25.0532 105.122 24.5597C105.946 24.0663 106.893 23.8196 107.966 23.8196C109.04 23.8196 109.897 24.0458 110.675 24.494C111.454 24.9422 112.064 25.5631 112.507 26.3485C112.949 27.1339 113.171 28.0386 113.171 29.0584H102.488Z" fill="#82AAFF"/>
<path d="M153.404 18.5273C151.535 18.5273 149.921 18.9673 148.556 19.8514C147.191 20.7314 146.249 21.9074 145.729 23.3713H145.462C145.052 21.8869 144.237 20.7067 143.008 19.835C141.782 18.9632 140.295 18.5273 138.549 18.5273C136.803 18.5273 135.344 18.9591 134.107 19.8267C132.869 20.6903 131.984 21.8745 131.456 23.3713H131.156V18.8645H124.428V44.417H131.488V29.0789C131.488 28.1373 131.669 27.3149 132.033 26.6076C132.398 25.9044 132.894 25.3534 133.517 24.9628C134.14 24.568 134.845 24.3706 135.631 24.3706C136.791 24.3706 137.729 24.7407 138.442 25.485C139.155 26.2293 139.512 27.2244 139.512 28.4786V44.417H146.36V28.8117C146.36 27.4794 146.72 26.4061 147.437 25.5919C148.154 24.7777 149.154 24.3706 150.437 24.3706C151.564 24.3706 152.502 24.7242 153.256 25.4356C154.006 26.147 154.383 27.212 154.383 28.6307V44.417H161.428V27.2326C161.428 24.4611 160.686 22.3186 159.198 20.8013C157.711 19.288 155.781 18.5315 153.404 18.5315V18.5273Z" fill="#82AAFF"/>
<path d="M185.175 20.1804C183.302 19.0784 181.077 18.5273 178.503 18.5273C175.93 18.5273 173.705 19.0784 171.832 20.1804C169.959 21.2824 168.513 22.8245 167.496 24.8065C166.48 26.7844 165.972 29.0954 165.972 31.7354C165.972 34.3753 166.48 36.6493 167.496 38.6313C168.513 40.6093 169.959 42.1513 171.832 43.2574C173.705 44.3595 175.93 44.9146 178.503 44.9146C181.077 44.9146 183.302 44.3636 185.175 43.2574C187.047 42.1554 188.494 40.6134 189.51 38.6313C190.527 36.6534 191.035 34.3548 191.035 31.7354C191.035 29.116 190.527 26.7844 189.51 24.8065C188.494 22.8286 187.047 21.2866 185.175 20.1804ZM183.253 35.6583C182.851 36.822 182.257 37.739 181.47 38.4134C180.683 39.0837 179.708 39.4208 178.536 39.4208C177.364 39.4208 176.36 39.0837 175.561 38.4134C174.758 37.7431 174.155 36.8261 173.754 35.6583C173.352 34.4945 173.147 33.1705 173.147 31.6819C173.147 30.1933 173.348 28.8692 173.754 27.7055C174.155 26.5418 174.758 25.6207 175.561 24.9422C176.364 24.2678 177.356 23.9265 178.536 23.9265C179.716 23.9265 180.688 24.2637 181.47 24.9422C182.253 25.6207 182.847 26.5377 183.253 27.7055C183.654 28.8692 183.859 30.1933 183.859 31.6819C183.859 33.1705 183.659 34.4945 183.253 35.6583Z" fill="#82AAFF"/>
<path d="M207.779 38.9752C207.447 39.0368 207.115 39.0656 206.783 39.0656C206.308 39.0656 205.89 38.9916 205.533 38.8477C205.173 38.7038 204.894 38.4529 204.697 38.091C204.496 37.7292 204.398 37.2234 204.398 36.5696V24.1922H209.189V18.867H204.398V12.7441H197.337V18.867H193.854V24.1922H197.337V37.4989C197.325 39.1726 197.673 40.5583 198.382 41.6562C199.091 42.7542 200.083 43.5643 201.357 44.0865C202.632 44.6087 204.123 44.8349 205.824 44.7691C206.742 44.7362 207.521 44.6457 208.16 44.4936C208.799 44.3456 209.299 44.2139 209.652 44.1029L208.541 38.8312C208.365 38.8641 208.111 38.9135 207.779 38.971V38.9752Z" fill="#82AAFF"/>
<path d="M233.349 21.7553C232.259 20.678 230.989 19.872 229.538 19.3333C228.084 18.7946 226.518 18.5273 224.838 18.5273C222.338 18.5273 220.166 19.0824 218.314 20.1927C216.462 21.303 215.028 22.8491 214.011 24.8353C212.995 26.8214 212.487 29.1283 212.487 31.7559C212.487 34.3835 212.995 36.7809 214.011 38.7506C215.028 40.7202 216.478 42.2376 218.363 43.3068C220.248 44.3759 222.498 44.9105 225.117 44.9105C227.215 44.9105 229.071 44.5856 230.678 43.9359C232.284 43.2862 233.599 42.3774 234.624 41.2096C235.644 40.0376 236.324 38.6684 236.656 37.0934L230.124 36.6616C229.883 37.3031 229.526 37.85 229.063 38.29C228.6 38.7341 228.043 39.0672 227.387 39.2893C226.735 39.5113 226.018 39.6223 225.231 39.6223C224.047 39.6223 223.027 39.3715 222.166 38.8739C221.306 38.3764 220.638 37.665 220.166 36.7439C219.695 35.8227 219.462 34.7331 219.462 33.4665V33.4501H236.804V31.5051C236.804 29.3298 236.501 27.4341 235.894 25.8057C235.288 24.1814 234.439 22.8327 233.349 21.7553ZM219.474 29.0584C219.515 28.1414 219.748 27.2984 220.179 26.5377C220.642 25.7112 221.285 25.0532 222.109 24.5597C222.932 24.0663 223.879 23.8196 224.953 23.8196C226.026 23.8196 226.883 24.0458 227.661 24.494C228.44 24.9422 229.051 25.5631 229.493 26.3485C229.936 27.1339 230.157 28.0386 230.157 29.0584H219.474Z" fill="#82AAFF"/>
<path d="M261.433 31.0496C263.273 30.1861 264.678 28.9401 265.653 27.3159C266.625 25.6916 267.112 23.7466 267.112 21.4849C267.112 19.2233 266.633 17.2742 265.678 15.6047C264.723 13.9352 263.334 12.6439 261.519 11.7269C259.699 10.8141 257.511 10.3535 254.946 10.3535H241.55V44.4221H248.729V32.3449H253.97L260.4 44.4221H268.325L261.121 31.1854C261.228 31.1401 261.334 31.099 261.437 31.0496H261.433ZM248.725 16.2461H253.565C254.946 16.2461 256.093 16.4477 257.003 16.8547C257.913 17.2577 258.593 17.8498 259.044 18.627C259.49 19.4042 259.716 20.3582 259.716 21.489C259.716 22.6199 259.49 23.5451 259.044 24.3017C258.597 25.0542 257.917 25.6217 257.011 26C256.105 26.3783 254.966 26.5675 253.597 26.5675H248.725V16.2543V16.2461Z" fill="#82AAFF"/>
<path d="M291.458 21.7553C290.368 20.678 289.098 19.872 287.647 19.3333C286.192 18.7946 284.627 18.5273 282.947 18.5273C280.447 18.5273 278.275 19.0824 276.423 20.1927C274.57 21.303 273.136 22.8491 272.12 24.8353C271.104 26.8214 270.595 29.1283 270.595 31.7559C270.595 34.3835 271.104 36.7809 272.12 38.7506C273.136 40.7202 274.587 42.2376 276.472 43.3068C278.357 44.3759 280.607 44.9105 283.225 44.9105C285.323 44.9105 287.18 44.5856 288.786 43.9359C290.392 43.2862 291.708 42.3774 292.732 41.2096C293.753 40.0376 294.433 38.6684 294.765 37.0934L288.233 36.6616C287.991 37.3031 287.634 37.85 287.171 38.29C286.708 38.7341 286.151 39.0672 285.495 39.2893C284.844 39.5113 284.127 39.6223 283.34 39.6223C282.156 39.6223 281.135 39.3715 280.275 38.8739C279.414 38.3764 278.746 37.665 278.275 36.7439C277.804 35.8227 277.57 34.7331 277.57 33.4665V33.4501H294.912V31.5051C294.912 29.3298 294.609 27.4341 294.003 25.8057C293.396 24.1814 292.548 22.8327 291.458 21.7553ZM277.582 29.0584C277.623 28.1414 277.857 27.2984 278.287 26.5377C278.75 25.7112 279.394 25.0532 280.217 24.5597C281.041 24.0663 281.988 23.8196 283.061 23.8196C284.135 23.8196 284.991 24.0458 285.77 24.494C286.549 24.9422 287.159 25.5631 287.602 26.3485C288.044 27.1339 288.266 28.0386 288.266 29.0584H277.582Z" fill="#82AAFF"/>
<path d="M319.184 19.983C317.615 19.0125 315.902 18.5273 314.046 18.5273C312.619 18.5273 311.427 18.77 310.472 19.2511C309.517 19.7322 308.743 20.3326 308.153 21.0481C307.563 21.7636 307.112 22.4667 306.8 23.1534H306.485V18.8604H299.523V53.9941H306.583V40.3214H306.8C307.12 41.0328 307.583 41.7318 308.194 42.4268C308.8 43.1217 309.583 43.6933 310.538 44.1497C311.492 44.6062 312.656 44.8323 314.029 44.8323C315.963 44.8323 317.713 44.3307 319.274 43.3273C320.84 42.324 322.077 40.8436 322.987 38.8863C323.897 36.9289 324.356 34.5233 324.356 31.6737C324.356 28.824 323.885 26.3074 322.946 24.3624C322.008 22.4174 320.754 20.9576 319.184 19.9871V19.983ZM316.525 35.5719C316.111 36.7069 315.504 37.5951 314.709 38.2324C313.914 38.8698 312.939 39.1906 311.792 39.1906C310.644 39.1906 309.685 38.878 308.89 38.2489C308.095 37.6239 307.485 36.7439 307.067 35.613C306.645 34.4822 306.436 33.1581 306.436 31.6367C306.436 30.1152 306.645 28.7993 307.067 27.6767C307.485 26.5582 308.091 25.6906 308.882 25.082C309.673 24.4734 310.64 24.1691 311.792 24.1691C312.943 24.1691 313.931 24.4857 314.726 25.119C315.521 25.7522 316.123 26.6281 316.533 27.7466C316.943 28.8651 317.148 30.1646 317.148 31.6408C317.148 33.117 316.939 34.437 316.525 35.576V35.5719Z" fill="#82AAFF"/>
<path d="M348.988 32.0397C347.771 30.9088 345.927 30.0864 343.452 29.5765L338.842 28.6431C337.657 28.3881 336.826 28.0509 336.338 27.6274C335.85 27.208 335.609 26.6898 335.609 26.0812C335.609 25.3164 335.986 24.7037 336.735 24.2432C337.485 23.7826 338.411 23.5523 339.506 23.5523C340.325 23.5523 341.026 23.688 341.62 23.9594C342.21 24.2308 342.69 24.5927 343.054 25.0409C343.419 25.4891 343.657 25.9908 343.767 26.5459L350.234 26.1471C349.922 23.7949 348.845 21.9404 346.992 20.5752C345.14 19.2099 342.608 18.5273 339.391 18.5273C337.215 18.5273 335.313 18.8481 333.695 19.4937C332.076 20.1352 330.822 21.0522 329.933 22.2365C329.044 23.4248 328.597 24.8353 328.597 26.4801C328.597 28.3881 329.203 29.9548 330.412 31.1884C331.621 32.4179 333.469 33.2856 335.957 33.7832L340.366 34.6632C341.473 34.8852 342.288 35.2018 342.821 35.6213C343.349 36.0366 343.624 36.567 343.632 37.2085C343.62 37.9734 343.239 38.5984 342.481 39.0795C341.723 39.5607 340.727 39.8033 339.489 39.8033C338.252 39.8033 337.194 39.536 336.391 38.9973C335.584 38.4586 335.076 37.6732 334.867 36.6452L327.921 37.0112C328.265 39.4496 329.433 41.3782 331.429 42.7928C333.424 44.2073 336.104 44.9146 339.477 44.9146C341.686 44.9146 343.64 44.561 345.337 43.8578C347.033 43.1546 348.369 42.1677 349.349 40.9053C350.328 39.6429 350.816 38.1708 350.816 36.4971C350.816 34.6549 350.209 33.1705 348.992 32.0397H348.988Z" fill="#82AAFF"/>
</svg>
