<svg width="290" height="262" viewBox="0 0 290 262" fill="none" xmlns="http://www.w3.org/2000/svg">
<path d="M145 61.5839C167.034 61.5964 188.215 70.3219 204.134 85.9445C220.053 101.567 229.484 122.883 230.463 145.456C230.514 146.495 230.953 147.474 231.688 148.191C232.424 148.907 233.4 149.306 234.414 149.305H281.952C282.483 149.305 283.009 149.196 283.498 148.983C283.987 148.77 284.429 148.458 284.798 148.066C285.167 147.674 285.455 147.21 285.645 146.701C285.834 146.192 285.922 145.65 285.903 145.105C285.896 106.784 271.044 70.0348 244.615 42.9425C218.185 15.8502 182.343 0.633953 144.974 0.641116C107.604 0.648279 71.7676 15.8783 45.3481 42.9807C18.9287 70.0831 4.09028 106.838 4.09726 145.159C4.07778 145.704 4.16557 146.246 4.35536 146.755C4.54516 147.264 4.83306 147.728 5.20186 148.12C5.57066 148.512 6.01278 148.824 6.50177 149.037C6.99077 149.25 7.5166 149.359 8.04781 149.359H55.5333C56.5477 149.36 57.5238 148.961 58.2592 148.245C58.9947 147.528 59.4332 146.549 59.4839 145.51C60.4508 122.918 69.8831 101.581 85.8148 85.9454C101.746 70.3099 122.948 61.5831 145 61.5839Z" fill="#0059C5"/>
<path d="M0 259.049V183.677C0 183.064 0.246658 182.477 0.685695 182.044C1.12473 181.61 1.72018 181.367 2.34107 181.367H34.9913C40.466 181.247 45.8869 182.456 50.7779 184.886C55.1712 187.112 58.8269 190.532 61.3127 194.743C63.8937 199.282 65.1901 204.424 65.0663 209.627C65.1987 214.843 63.8643 219.992 61.2113 224.505C58.6361 228.699 54.8812 232.065 50.4033 234.192C45.3407 236.549 39.7918 237.712 34.1953 237.588H15.6072C14.9863 237.588 14.3908 237.344 13.9518 236.911C13.5127 236.478 13.2661 235.89 13.2661 235.278V223.049C13.2661 222.437 13.5127 221.849 13.9518 221.416C14.3908 220.983 14.9863 220.739 15.6072 220.739H29.7317C32.0186 220.803 34.2894 220.342 36.3647 219.392C38.1329 218.554 39.6061 217.213 40.5942 215.541C41.621 213.747 42.1361 211.711 42.0847 209.651C42.145 207.592 41.6293 205.556 40.5942 203.767C39.5942 202.13 38.1215 200.824 36.3647 200.017C34.2813 199.095 32.0142 198.648 29.7317 198.708H24.3472C23.7263 198.708 23.1308 198.952 22.6918 199.385C22.2527 199.818 22.0061 200.406 22.0061 201.018V259.049C22.0061 259.661 21.7595 260.249 21.3204 260.682C20.8814 261.115 20.2859 261.359 19.665 261.359H2.34107C1.72018 261.359 1.12473 261.115 0.685695 260.682C0.246658 260.249 0 259.661 0 259.049Z" fill="#004397"/>
<path d="M145.02 221.363C145.02 230.029 143.366 237.336 140.057 243.284C136.965 249.006 132.315 253.692 126.667 256.778C120.833 259.796 114.381 261.365 107.839 261.359C101.297 261.352 94.8487 259.77 89.02 256.741C83.3752 253.637 78.7286 248.938 75.6376 243.209C72.3435 237.261 70.6964 229.979 70.6964 221.363C70.6964 212.746 72.3435 205.439 75.6376 199.442C78.7128 193.72 83.3517 189.032 88.9906 185.947C94.8243 182.931 101.273 181.359 107.814 181.359C114.355 181.359 120.804 182.931 126.638 185.947C132.288 189.029 136.94 193.717 140.027 199.442C143.356 205.384 145.02 212.691 145.02 221.363ZM123.697 221.363C123.798 217.347 123.183 213.346 121.88 209.555C120.87 206.589 118.979 204.017 116.469 202.196C113.96 200.376 110.956 199.398 107.877 199.398C104.797 199.398 101.793 200.376 99.2838 202.196C96.7742 204.017 94.883 206.589 93.8729 209.555C91.471 217.236 91.471 225.489 93.8729 233.17C94.883 236.137 96.7742 238.709 99.2838 240.529C101.793 242.35 104.797 243.328 107.877 243.328C110.956 243.328 113.96 242.35 116.469 240.529C118.979 238.709 120.87 236.137 121.88 233.17C123.18 229.379 123.793 225.378 123.689 221.363H123.697Z" fill="#004397"/>
<path d="M220.256 183.669V259.049C220.256 259.661 220.012 260.249 219.576 260.682C219.141 261.115 218.55 261.359 217.934 261.359H203.224C202.848 261.359 202.477 261.267 202.144 261.093C201.811 260.919 201.525 260.666 201.312 260.358L172.946 219.326H172.473V259.049C172.473 259.661 172.229 260.249 171.793 260.682C171.358 261.115 170.767 261.359 170.151 261.359H152.964C152.348 261.359 151.757 261.115 151.321 260.682C150.886 260.249 150.641 259.661 150.641 259.049V183.669C150.641 183.057 150.886 182.469 151.321 182.036C151.757 181.602 152.348 181.359 152.964 181.359H167.944C168.323 181.36 168.697 181.453 169.031 181.63C169.366 181.807 169.652 182.063 169.864 182.375L197.735 223.238H198.417V183.669C198.417 183.057 198.661 182.469 199.097 182.036C199.532 181.602 200.123 181.359 200.739 181.359H217.926C218.232 181.358 218.535 181.417 218.817 181.533C219.1 181.648 219.357 181.818 219.573 182.033C219.79 182.247 219.962 182.503 220.079 182.783C220.196 183.064 220.257 183.365 220.256 183.669Z" fill="#004397"/>
<path d="M270.959 206.795C270.468 206.794 269.991 206.627 269.604 206.319C269.216 206.012 268.94 205.582 268.819 205.097C268.456 203.439 267.569 201.948 266.295 200.851C264.637 199.429 262.123 198.717 258.752 198.717C256.969 198.652 255.187 198.907 253.49 199.469C252.307 199.865 251.262 200.601 250.479 201.588C249.831 202.466 249.477 203.533 249.468 204.631C249.403 205.51 249.579 206.389 249.977 207.171C250.426 207.987 251.061 208.68 251.83 209.193C252.843 209.87 253.936 210.413 255.084 210.808C256.619 211.361 258.19 211.806 259.785 212.138L266.073 213.506C269.836 214.258 273.494 215.474 276.967 217.128C279.706 218.436 282.202 220.216 284.347 222.388C286.216 224.33 287.664 226.649 288.598 229.196C289.53 231.836 290.004 234.62 290 237.425C290 242.56 288.74 246.906 286.221 250.463C283.53 254.17 279.83 256.992 275.579 258.578C270.954 260.437 265.394 261.364 258.9 261.359C252.238 261.359 246.43 260.357 241.475 258.353C236.779 256.554 232.75 253.31 229.947 249.073C227.556 245.41 226.201 240.847 225.881 235.381C225.865 235.075 225.91 234.769 226.014 234.481C226.118 234.194 226.279 233.931 226.486 233.709C226.693 233.486 226.943 233.309 227.219 233.189C227.496 233.068 227.794 233.006 228.095 233.006H243.593C244.107 233.007 244.604 233.19 245 233.523C245.396 233.856 245.666 234.319 245.763 234.832C245.997 236.325 246.529 237.752 247.328 239.026C248.406 240.683 249.949 241.971 251.756 242.723C253.925 243.614 256.251 244.044 258.59 243.985C260.481 244.038 262.367 243.753 264.162 243.144C265.488 242.707 266.669 241.903 267.572 240.822C268.335 239.859 268.757 238.662 268.767 237.425C268.759 236.275 268.357 235.164 267.631 234.284C266.626 233.197 265.388 232.361 264.014 231.842C261.82 230.958 259.553 230.276 257.239 229.805L249.601 228.129C242.816 226.626 237.47 224.122 233.564 220.615C229.657 217.108 227.716 212.299 227.741 206.187C227.641 201.541 229.018 196.986 231.667 193.202C234.48 189.338 238.274 186.327 242.641 184.492C247.741 182.324 253.227 181.26 258.752 181.366C264.942 181.366 270.295 182.421 274.812 184.53C279.064 186.416 282.694 189.507 285.269 193.435C287.363 196.73 288.609 200.507 288.893 204.421C288.913 204.729 288.871 205.039 288.769 205.33C288.667 205.621 288.507 205.888 288.299 206.113C288.091 206.339 287.84 206.518 287.562 206.641C287.283 206.763 286.983 206.826 286.679 206.826L270.959 206.795Z" fill="#004397"/>
</svg>
