<svg width="127" height="104" viewBox="0 0 127 104" fill="none" xmlns="http://www.w3.org/2000/svg">
<g clip-path="url(#clip0_32745_171)">
<g clip-path="url(#clip1_32745_171)">
<path fill-rule="evenodd" clip-rule="evenodd" d="M75.6759 45.1327C71.223 50.6493 64.6636 54.1018 57.5492 54.6522C39.1071 59.2806 35.0453 30.5345 47.3568 32.9988C49.8292 33.4992 51.6457 35.5757 51.8097 38.065C52.4908 36.2012 52.2386 34.1247 51.1159 32.4734C50.0058 30.8222 48.1642 29.809 46.1711 29.7214C46.9279 28.9083 48.1894 28.8333 49.0345 29.5338C47.7857 24.7553 43.7113 21.2277 38.7791 20.6398C37.5682 19.8267 36.7356 18.5633 36.4707 17.1247C36.2058 15.6987 36.5464 14.2226 37.3916 13.0342C34.8309 15.511 33.4307 18.926 33.5064 22.4786C29.1797 32.2608 30.151 43.5441 36.0923 52.4631C42.0336 61.3696 52.125 66.686 62.8976 66.5734C81.1379 66.3858 95.8335 51.675 95.8335 33.5743C95.8335 21.7781 89.5894 11.408 80.1792 5.57874C89.5137 15.7612 92.1375 30.3469 86.9278 43.1062C87.1675 36.6515 85.0357 30.4219 81.0496 25.5183C82.0713 32.511 80.1287 39.6162 75.6759 45.1327Z" fill="url(#paint0_linear_32745_171)"/>
<path fill-rule="evenodd" clip-rule="evenodd" d="M57.549 54.6516C64.6635 54.1012 71.2229 50.6612 75.6757 45.1322C80.1286 39.6156 82.0838 32.5104 81.062 25.5053C79.5862 23.6789 77.8454 22.0277 75.8776 20.6267C68.637 15.4354 59.2646 14.172 50.8887 17.2492C61.2702 15.4854 71.1346 22.378 72.9637 32.6605C74.8053 42.9556 67.9053 52.7753 57.549 54.6516Z" fill="url(#paint1_linear_32745_171)"/>
<path fill-rule="evenodd" clip-rule="evenodd" d="M74.3767 11.4707C84.3798 18.726 89.2615 31.035 86.9405 43.0939C92.1502 30.3345 89.5264 15.7488 80.1918 5.56635C75.1587 2.46408 69.2553 0.637741 62.9103 0.575195C54.5218 0.637741 46.4487 3.68998 40.1667 9.19401C51.0529 3.33972 64.3735 4.22787 74.3767 11.4707Z" fill="url(#paint2_linear_32745_171)"/>
</g>
<g clip-path="url(#clip2_32745_171)">
<path fill-rule="evenodd" clip-rule="evenodd" d="M0.550577 98.7046H3.4431L3.32813 92.7474H6.19645L9.47022 98.7046H12.5624L9.1858 92.7959C8.85903 92.2136 8.65934 91.9891 8.65934 91.9891L8.64724 91.9466C10.8802 91.158 11.6124 88.7982 11.1525 86.6204C10.8076 84.9825 9.73647 83.7449 8.27205 83.1565C7.558 82.8653 6.75318 82.7501 5.89994 82.7501H0.272217L0.550577 98.7046ZM3.29182 90.2299L3.20106 85.2433H5.82127C7.1223 85.2433 8.04816 85.9167 8.30231 87.1118C8.7138 89.0651 7.55195 90.2359 5.84548 90.2359H3.29182V90.2299Z" fill="white"/>
<path fill-rule="evenodd" clip-rule="evenodd" d="M14.2326 94.0527C14.8135 96.819 17.2643 98.9725 20.8285 98.9725C23.364 98.9725 24.9737 97.4681 24.9737 97.4681L23.7513 95.2902C23.7513 95.2902 22.3111 96.546 20.4715 96.546C18.6319 96.546 17.4035 95.3994 17.0948 93.9374C17.0646 93.804 17.0404 93.6705 17.0283 93.5128H24.895C24.895 93.5128 25.0402 92.2995 24.8345 91.3107C24.2959 88.7689 22.42 86.9733 19.3459 86.9733C15.5397 86.9733 13.4156 90.1642 14.2326 94.0527ZM17.0706 91.5594C17.3308 90.146 18.3172 89.1754 19.7756 89.1754C20.8527 89.1754 21.7362 89.873 21.9904 91.062C22.0448 91.3107 22.0509 91.5594 22.0509 91.5594H17.0706Z" fill="white"/>
<path fill-rule="evenodd" clip-rule="evenodd" d="M26.7649 96.0546C27.1643 97.9412 28.9978 98.9786 30.7648 98.9786C33.1853 98.9786 34.0507 96.9099 34.0507 96.9099H34.093C34.093 96.9099 34.0325 97.2679 34.0446 97.741L34.0688 98.7056H36.689L36.562 91.6262C36.5438 91.2197 36.5075 90.8375 36.4349 90.5039C35.8782 87.8529 33.5847 86.9733 31.497 86.9733C29.0281 86.9733 27.2308 88.2108 27.2308 88.2108L28.3685 90.4129C28.3685 90.4129 29.8692 89.3331 31.5031 89.3331C32.8041 89.3331 33.4637 89.9154 33.6694 90.8861C33.6997 91.0438 33.7239 91.244 33.736 91.517H33.3124C30.2867 91.5109 25.9903 92.3905 26.7649 96.0546ZM29.5303 95.5572C29.1309 93.6705 32.0235 93.4643 33.3245 93.4643H33.7965V93.6887C33.8207 95.084 32.7617 96.7462 31.255 96.7462C30.2504 96.7522 29.6635 96.2123 29.5303 95.5572Z" fill="white"/>
<path fill-rule="evenodd" clip-rule="evenodd" d="M39.2367 94.1851C39.8539 97.1091 41.8387 98.9715 44.5981 98.9715C46.1654 98.9715 47.3333 98.1161 47.8598 96.9939H47.9022C47.9022 96.9939 47.8719 97.376 47.878 97.8492V98.7046H50.5708L50.2985 82.7501H47.4483L47.5391 87.8519C47.5391 88.1673 47.5935 88.5495 47.5935 88.5495H47.5512C46.7343 87.4454 45.294 86.9783 44.0596 86.9783C40.7435 86.9722 38.335 89.8962 39.2367 94.1851ZM42.0868 93.9849C41.4817 91.1277 43.0974 89.423 44.8039 89.423C46.3712 89.423 47.291 90.5939 47.5875 91.983C48.1019 94.4096 46.8311 96.5692 44.9249 96.5692C43.5089 96.5692 42.4257 95.5804 42.0868 93.9849Z" fill="white"/>
<path fill-rule="evenodd" clip-rule="evenodd" d="M53.3303 100.616L52.4771 102.618C52.4771 102.618 53.7478 103.425 55.2486 103.425C56.7493 103.425 58.2198 102.527 58.9701 100.458L63.8717 87.2458H60.6645L58.5526 94.2342C58.3589 94.8166 58.1774 95.6477 58.1774 95.6477H58.135C58.135 95.6477 57.9293 94.7681 57.6933 94.1857L54.9278 87.2397H51.9688L56.9974 98.5232L56.5678 99.5544C56.1744 100.568 55.4664 101.016 54.6132 101.016C53.887 101.022 53.3303 100.616 53.3303 100.616Z" fill="white"/>
<path fill-rule="evenodd" clip-rule="evenodd" d="M65.929 98.7046H68.8215L69.3358 89.781C69.3843 88.7254 69.2995 87.2634 69.2995 87.2634H69.3419C69.3419 87.2634 69.8563 88.8589 70.2556 89.781L72.9485 95.9626H75.5021L77.9711 89.781C78.322 88.8831 78.7941 87.3059 78.7941 87.3059H78.8364C78.8364 87.3059 78.8183 88.7194 78.909 89.781L79.6957 98.7046H82.5459L80.9967 82.7501H77.8561L74.8546 90.6363C74.4916 91.5827 74.0922 92.9719 74.0922 92.9719H74.0498C74.0498 92.9719 73.6444 91.5766 73.245 90.6363L69.9652 82.7501H66.873L65.929 98.7046Z" fill="white"/>
<path fill-rule="evenodd" clip-rule="evenodd" d="M103.417 94.1851C104.034 97.1091 106.019 98.9715 108.778 98.9715C110.346 98.9715 111.513 98.1161 112.04 96.9939H112.082C112.082 96.9939 112.052 97.376 112.058 97.8492V98.7046H114.751L114.479 82.7501H111.628L111.719 87.8519C111.719 88.1673 111.774 88.5495 111.774 88.5495H111.731C110.914 87.4454 109.474 86.9783 108.24 86.9783C104.924 86.9722 102.509 89.8962 103.417 94.1851ZM106.267 93.9849C105.662 91.1277 107.278 89.423 108.984 89.423C110.551 89.423 111.471 90.5939 111.768 91.983C112.282 94.4096 111.011 96.5692 109.105 96.5692C107.689 96.5692 106.606 95.5804 106.267 93.9849Z" fill="white"/>
<path fill-rule="evenodd" clip-rule="evenodd" d="M117.65 97.3096C117.65 97.3096 119.683 98.9717 122.527 98.9717C125.129 98.9717 126.769 97.5097 126.321 95.3744C125.601 91.959 120.778 91.959 120.488 90.5638C120.3 89.6842 121.256 89.3262 122.085 89.3262C123.858 89.3262 124.941 90.2241 124.941 90.2241L125.831 88.2707C125.831 88.2707 124.191 86.9664 121.589 86.9664C119.326 86.9664 117.347 88.3374 117.825 90.582C118.533 93.9306 123.326 93.9063 123.634 95.3683C123.81 96.1994 122.908 96.6059 122.037 96.6059C120.131 96.6059 118.745 95.4593 118.745 95.4593L117.65 97.3096Z" fill="white"/>
<path fill-rule="evenodd" clip-rule="evenodd" d="M90.9269 98.7056H93.7711L93.6682 93.5371C93.6319 91.4442 94.939 89.5818 96.9117 89.5818C97.8073 89.5818 98.4366 90.0064 98.6424 90.9771C98.7029 91.2682 98.715 91.6504 98.7331 92.0326L98.8421 98.7056H101.692L101.559 91.5837C101.547 91.0863 101.541 90.5281 101.45 90.0974C100.984 87.8954 99.3564 86.9733 97.3413 86.9733C95.3444 86.9733 93.9042 88.32 93.5048 89.3998H93.4624C93.4624 89.3998 93.523 88.8356 93.5169 88.2775L93.4988 87.2463H90.7394L90.9269 98.7056ZM85.1177 87.2402L85.3174 98.7056H88.1433L87.9679 87.2402H85.1177Z" fill="white"/>
<path fill-rule="evenodd" clip-rule="evenodd" d="M85.0449 82.7447L85.0873 85.2865H87.9314L87.8891 82.7447H85.0449Z" fill="white"/>
<path fill-rule="evenodd" clip-rule="evenodd" d="M85.2206 82.921L85.2569 85.117H87.7622L87.7259 82.921H85.2206ZM84.918 85.2929L84.8757 82.7511L84.8696 82.5752H85.0451H87.8953H88.0647V82.7451L88.1071 85.2869V85.4628H87.9316H85.0814H84.912L84.918 85.2929Z" fill="white"/>
</g>
</g>
<defs>
<linearGradient id="paint0_linear_32745_171" x1="62.4072" y1="64.1937" x2="63.6206" y2="24.8313" gradientUnits="userSpaceOnUse">
<stop stop-color="#E6340D"/>
<stop offset="1" stop-color="#EC6801"/>
</linearGradient>
<linearGradient id="paint1_linear_32745_171" x1="46.5776" y1="19.4427" x2="69.4643" y2="40.3495" gradientUnits="userSpaceOnUse">
<stop stop-color="#EC6801"/>
<stop offset="1" stop-color="#E6340D"/>
</linearGradient>
<linearGradient id="paint2_linear_32745_171" x1="60.4504" y1="7.62724" x2="86.9412" y2="31.8263" gradientUnits="userSpaceOnUse">
<stop stop-color="#EC6801"/>
<stop offset="1" stop-color="#E6340D"/>
</linearGradient>
<clipPath id="clip0_32745_171">
<rect width="126.122" height="102.85" fill="white" transform="translate(0.272217 0.575195)"/>
</clipPath>
<clipPath id="clip1_32745_171">
<rect width="65" height="66" fill="white" transform="translate(30.8335 0.575195)"/>
</clipPath>
<clipPath id="clip2_32745_171">
<rect width="126.122" height="20.8496" fill="white" transform="translate(0.272217 82.5752)"/>
</clipPath>
</defs>
</svg>
