<svg width="362" height="72" viewBox="0 0 362 72" fill="none" xmlns="http://www.w3.org/2000/svg">
<g clip-path="url(#clip0_33408_73)">
<path d="M37.9417 9H0.872131V46.198C0.872131 53.6696 6.90829 59.7226 14.3501 59.7226H37.9376C45.3835 59.7226 51.4156 53.6655 51.4156 46.198V22.5288C51.4156 15.0571 45.3794 9.00412 37.9376 9.00412L37.9417 9ZM44.2524 42.2339C40.6831 49.0888 33.6512 53.4147 25.9389 53.4147C25.8283 53.4147 25.7217 53.4147 25.6111 53.4147C18.0505 53.2954 11.1251 48.9448 7.62546 42.2339C5.85107 42.0119 4.52741 40.3341 4.92081 38.4179C5.16258 37.2418 6.09699 36.2755 7.26079 36.0041C9.33842 35.523 11.1865 37.0938 11.1865 39.0964C11.1865 39.6515 11.0308 40.1655 10.7808 40.622C13.6862 46.1692 19.4151 49.759 25.6644 49.8577C32.1268 49.9605 38.0851 46.3665 41.093 40.6178C40.6955 39.8941 40.5398 39.0183 40.8635 38.0643C41.2242 37.0074 42.1379 36.185 43.232 35.9753C45.2523 35.5887 47.0226 37.1349 47.0226 39.0964C47.0226 40.7166 45.8097 42.0365 44.2484 42.2339H44.2524Z" fill="#82AAFF"/>
<path d="M86.3381 40.0321C88.178 39.1685 89.5835 37.9226 90.5588 36.2983C91.53 34.674 92.0177 32.729 92.0177 30.4673C92.0177 28.2057 91.5383 26.2566 90.5834 24.5871C89.6286 22.9176 88.2395 21.6264 86.4241 20.7094C84.6047 19.7965 82.4164 19.3359 79.8511 19.3359H66.4551V53.4046H73.6346V41.3274H78.8758L85.3054 53.4046H93.2307L86.0266 40.1678C86.1332 40.1225 86.2397 40.0814 86.3422 40.0321H86.3381ZM73.6305 25.2285H78.47C79.851 25.2285 80.9985 25.4301 81.9082 25.8372C82.818 26.2402 83.4982 26.8323 83.949 27.6095C84.3956 28.3866 84.621 29.3406 84.621 30.4714C84.621 31.6023 84.3956 32.5275 83.949 33.2842C83.5023 34.0367 82.8221 34.6041 81.9164 34.9824C81.0108 35.3608 79.8716 35.5499 78.5029 35.5499H73.6305V25.2368V25.2285Z" fill="#82AAFF"/>
<path d="M116.363 30.7553C115.273 29.678 114.003 28.872 112.552 28.3333C111.097 27.7946 109.532 27.5273 107.852 27.5273C105.352 27.5273 103.18 28.0824 101.328 29.1927C99.4756 30.303 98.0413 31.8491 97.025 33.8353C96.0087 35.8214 95.5006 38.1283 95.5006 40.7559C95.5006 43.3835 96.0087 45.7809 97.025 47.7506C98.0413 49.7202 99.492 51.2376 101.377 52.3068C103.262 53.3759 105.512 53.9105 108.13 53.9105C110.228 53.9105 112.085 53.5856 113.691 52.9359C115.298 52.2862 116.613 51.3774 117.637 50.2096C118.658 49.0376 119.338 47.6684 119.67 46.0934L113.138 45.6616C112.896 46.3031 112.54 46.85 112.077 47.29C111.614 47.7341 111.056 48.0672 110.401 48.2893C109.749 48.5113 109.032 48.6223 108.245 48.6223C107.061 48.6223 106.04 48.3715 105.18 47.8739C104.319 47.3764 103.651 46.665 103.18 45.7439C102.709 44.8227 102.475 43.7331 102.475 42.4665V42.4501H119.818V40.5051C119.818 38.3298 119.514 36.4341 118.908 34.8057C118.301 33.1814 117.453 31.8327 116.363 30.7553ZM102.488 38.0584C102.529 37.1414 102.762 36.2984 103.192 35.5377C103.655 34.7112 104.299 34.0532 105.122 33.5597C105.946 33.0663 106.893 32.8196 107.966 32.8196C109.04 32.8196 109.897 33.0458 110.675 33.494C111.454 33.9422 112.064 34.5631 112.507 35.3485C112.949 36.1339 113.171 37.0386 113.171 38.0584H102.488Z" fill="#82AAFF"/>
<path d="M153.404 27.5273C151.535 27.5273 149.921 27.9673 148.556 28.8514C147.191 29.7314 146.249 30.9074 145.729 32.3713H145.462C145.052 30.8869 144.237 29.7067 143.008 28.835C141.782 27.9632 140.295 27.5273 138.549 27.5273C136.803 27.5273 135.344 27.9591 134.107 28.8267C132.869 29.6903 131.984 30.8745 131.456 32.3713H131.156V27.8645H124.428V53.417H131.488V38.0789C131.488 37.1373 131.669 36.3149 132.033 35.6076C132.398 34.9044 132.894 34.3534 133.517 33.9628C134.14 33.568 134.845 33.3706 135.631 33.3706C136.791 33.3706 137.729 33.7407 138.442 34.485C139.155 35.2293 139.512 36.2244 139.512 37.4786V53.417H146.36V37.8117C146.36 36.4794 146.72 35.4061 147.437 34.5919C148.154 33.7777 149.154 33.3706 150.437 33.3706C151.564 33.3706 152.502 33.7242 153.256 34.4356C154.006 35.147 154.383 36.212 154.383 37.6307V53.417H161.428V36.2326C161.428 33.4611 160.686 31.3186 159.198 29.8013C157.711 28.288 155.781 27.5315 153.404 27.5315V27.5273Z" fill="#82AAFF"/>
<path d="M185.175 29.1804C183.302 28.0784 181.077 27.5273 178.503 27.5273C175.93 27.5273 173.705 28.0784 171.832 29.1804C169.959 30.2824 168.513 31.8245 167.496 33.8065C166.48 35.7844 165.972 38.0954 165.972 40.7354C165.972 43.3753 166.48 45.6493 167.496 47.6313C168.513 49.6093 169.959 51.1513 171.832 52.2574C173.705 53.3595 175.93 53.9146 178.503 53.9146C181.077 53.9146 183.302 53.3636 185.175 52.2574C187.047 51.1554 188.494 49.6134 189.51 47.6313C190.527 45.6534 191.035 43.3548 191.035 40.7354C191.035 38.116 190.527 35.7844 189.51 33.8065C188.494 31.8286 187.047 30.2866 185.175 29.1804ZM183.253 44.6583C182.851 45.822 182.257 46.739 181.47 47.4134C180.683 48.0837 179.708 48.4208 178.536 48.4208C177.364 48.4208 176.36 48.0837 175.561 47.4134C174.758 46.7431 174.155 45.8261 173.754 44.6583C173.352 43.4945 173.147 42.1705 173.147 40.6819C173.147 39.1933 173.348 37.8692 173.754 36.7055C174.155 35.5418 174.758 34.6207 175.561 33.9422C176.364 33.2678 177.356 32.9265 178.536 32.9265C179.716 32.9265 180.688 33.2637 181.47 33.9422C182.253 34.6207 182.847 35.5377 183.253 36.7055C183.654 37.8692 183.859 39.1933 183.859 40.6819C183.859 42.1705 183.659 43.4945 183.253 44.6583Z" fill="#82AAFF"/>
<path d="M207.779 47.9752C207.447 48.0368 207.115 48.0656 206.783 48.0656C206.308 48.0656 205.89 47.9916 205.533 47.8477C205.173 47.7038 204.894 47.4529 204.697 47.091C204.496 46.7292 204.398 46.2234 204.398 45.5696V33.1922H209.189V27.867H204.398V21.7441H197.337V27.867H193.854V33.1922H197.337V46.4989C197.325 48.1726 197.673 49.5583 198.382 50.6562C199.091 51.7542 200.083 52.5643 201.357 53.0865C202.632 53.6087 204.123 53.8349 205.824 53.7691C206.742 53.7362 207.521 53.6457 208.16 53.4936C208.799 53.3456 209.299 53.2139 209.652 53.1029L208.541 47.8312C208.365 47.8641 208.111 47.9135 207.779 47.971V47.9752Z" fill="#82AAFF"/>
<path d="M233.349 30.7553C232.259 29.678 230.989 28.872 229.538 28.3333C228.084 27.7946 226.518 27.5273 224.838 27.5273C222.338 27.5273 220.166 28.0824 218.314 29.1927C216.462 30.303 215.028 31.8491 214.011 33.8353C212.995 35.8214 212.487 38.1283 212.487 40.7559C212.487 43.3835 212.995 45.7809 214.011 47.7506C215.028 49.7202 216.478 51.2376 218.363 52.3068C220.248 53.3759 222.498 53.9105 225.117 53.9105C227.215 53.9105 229.071 53.5856 230.678 52.9359C232.284 52.2862 233.599 51.3774 234.624 50.2096C235.644 49.0376 236.324 47.6684 236.656 46.0934L230.124 45.6616C229.883 46.3031 229.526 46.85 229.063 47.29C228.6 47.7341 228.043 48.0672 227.387 48.2893C226.735 48.5113 226.018 48.6223 225.231 48.6223C224.047 48.6223 223.027 48.3715 222.166 47.8739C221.306 47.3764 220.638 46.665 220.166 45.7439C219.695 44.8227 219.462 43.7331 219.462 42.4665V42.4501H236.804V40.5051C236.804 38.3298 236.501 36.4341 235.894 34.8057C235.288 33.1814 234.439 31.8327 233.349 30.7553ZM219.474 38.0584C219.515 37.1414 219.748 36.2984 220.179 35.5377C220.642 34.7112 221.285 34.0532 222.109 33.5597C222.932 33.0663 223.879 32.8196 224.953 32.8196C226.026 32.8196 226.883 33.0458 227.661 33.494C228.44 33.9422 229.051 34.5631 229.493 35.3485C229.936 36.1339 230.157 37.0386 230.157 38.0584H219.474Z" fill="#82AAFF"/>
<path d="M261.433 40.0496C263.273 39.1861 264.678 37.9401 265.653 36.3159C266.625 34.6916 267.112 32.7466 267.112 30.4849C267.112 28.2233 266.633 26.2742 265.678 24.6047C264.723 22.9352 263.334 21.6439 261.519 20.7269C259.699 19.8141 257.511 19.3535 254.946 19.3535H241.55V53.4221H248.729V41.3449H253.97L260.4 53.4221H268.325L261.121 40.1854C261.228 40.1401 261.334 40.099 261.437 40.0496H261.433ZM248.725 25.2461H253.565C254.946 25.2461 256.093 25.4477 257.003 25.8547C257.913 26.2577 258.593 26.8498 259.044 27.627C259.49 28.4042 259.716 29.3582 259.716 30.489C259.716 31.6199 259.49 32.5451 259.044 33.3017C258.597 34.0542 257.917 34.6217 257.011 35C256.105 35.3783 254.966 35.5675 253.597 35.5675H248.725V25.2543V25.2461Z" fill="#82AAFF"/>
<path d="M291.458 30.7553C290.368 29.678 289.098 28.872 287.647 28.3333C286.192 27.7946 284.627 27.5273 282.947 27.5273C280.447 27.5273 278.275 28.0824 276.423 29.1927C274.57 30.303 273.136 31.8491 272.12 33.8353C271.104 35.8214 270.595 38.1283 270.595 40.7559C270.595 43.3835 271.104 45.7809 272.12 47.7506C273.136 49.7202 274.587 51.2376 276.472 52.3068C278.357 53.3759 280.607 53.9105 283.225 53.9105C285.323 53.9105 287.18 53.5856 288.786 52.9359C290.392 52.2862 291.708 51.3774 292.732 50.2096C293.753 49.0376 294.433 47.6684 294.765 46.0934L288.233 45.6616C287.991 46.3031 287.634 46.85 287.171 47.29C286.708 47.7341 286.151 48.0672 285.495 48.2893C284.844 48.5113 284.127 48.6223 283.34 48.6223C282.156 48.6223 281.135 48.3715 280.275 47.8739C279.414 47.3764 278.746 46.665 278.275 45.7439C277.804 44.8227 277.57 43.7331 277.57 42.4665V42.4501H294.912V40.5051C294.912 38.3298 294.609 36.4341 294.003 34.8057C293.396 33.1814 292.548 31.8327 291.458 30.7553ZM277.582 38.0584C277.623 37.1414 277.857 36.2984 278.287 35.5377C278.75 34.7112 279.394 34.0532 280.217 33.5597C281.041 33.0663 281.988 32.8196 283.061 32.8196C284.135 32.8196 284.991 33.0458 285.77 33.494C286.549 33.9422 287.159 34.5631 287.602 35.3485C288.044 36.1339 288.266 37.0386 288.266 38.0584H277.582Z" fill="#82AAFF"/>
<path d="M319.184 28.983C317.615 28.0125 315.902 27.5273 314.046 27.5273C312.619 27.5273 311.427 27.77 310.472 28.2511C309.517 28.7322 308.743 29.3326 308.153 30.0481C307.563 30.7636 307.112 31.4667 306.8 32.1534H306.485V27.8604H299.523V62.9941H306.583V49.3214H306.8C307.12 50.0328 307.583 50.7318 308.194 51.4268C308.8 52.1217 309.583 52.6933 310.538 53.1497C311.492 53.6062 312.656 53.8323 314.029 53.8323C315.963 53.8323 317.713 53.3307 319.274 52.3273C320.84 51.324 322.077 49.8436 322.987 47.8863C323.897 45.9289 324.356 43.5233 324.356 40.6737C324.356 37.824 323.885 35.3074 322.946 33.3624C322.008 31.4174 320.754 29.9576 319.184 28.9871V28.983ZM316.525 44.5719C316.111 45.7069 315.504 46.5951 314.709 47.2324C313.914 47.8698 312.939 48.1906 311.792 48.1906C310.644 48.1906 309.685 47.878 308.89 47.2489C308.095 46.6239 307.485 45.7439 307.067 44.613C306.645 43.4822 306.436 42.1581 306.436 40.6367C306.436 39.1152 306.645 37.7993 307.067 36.6767C307.485 35.5582 308.091 34.6906 308.882 34.082C309.673 33.4734 310.64 33.1691 311.792 33.1691C312.943 33.1691 313.931 33.4857 314.726 34.119C315.521 34.7522 316.123 35.6281 316.533 36.7466C316.943 37.8651 317.148 39.1646 317.148 40.6408C317.148 42.117 316.939 43.437 316.525 44.576V44.5719Z" fill="#82AAFF"/>
<path d="M348.988 41.0397C347.771 39.9088 345.927 39.0864 343.452 38.5765L338.842 37.6431C337.657 37.3881 336.826 37.0509 336.338 36.6274C335.85 36.208 335.609 35.6898 335.609 35.0812C335.609 34.3164 335.986 33.7037 336.735 33.2432C337.485 32.7826 338.411 32.5523 339.506 32.5523C340.325 32.5523 341.026 32.688 341.62 32.9594C342.21 33.2308 342.69 33.5927 343.054 34.0409C343.419 34.4891 343.657 34.9908 343.767 35.5459L350.234 35.1471C349.922 32.7949 348.845 30.9404 346.992 29.5752C345.14 28.2099 342.608 27.5273 339.391 27.5273C337.215 27.5273 335.313 27.8481 333.695 28.4937C332.076 29.1352 330.822 30.0522 329.933 31.2365C329.044 32.4248 328.597 33.8353 328.597 35.4801C328.597 37.3881 329.203 38.9548 330.412 40.1884C331.621 41.4179 333.469 42.2856 335.957 42.7832L340.366 43.6632C341.473 43.8852 342.288 44.2018 342.821 44.6213C343.349 45.0366 343.624 45.567 343.632 46.2085C343.62 46.9734 343.239 47.5984 342.481 48.0795C341.723 48.5607 340.727 48.8033 339.489 48.8033C338.252 48.8033 337.194 48.536 336.391 47.9973C335.584 47.4586 335.076 46.6732 334.867 45.6452L327.921 46.0112C328.265 48.4496 329.433 50.3782 331.429 51.7928C333.424 53.2073 336.104 53.9146 339.477 53.9146C341.686 53.9146 343.64 53.561 345.337 52.8578C347.033 52.1546 348.369 51.1677 349.349 49.9053C350.328 48.6429 350.816 47.1708 350.816 45.4971C350.816 43.6549 350.209 42.1705 348.992 41.0397H348.988Z" fill="#82AAFF"/>
</g>
<defs>
<clipPath id="clip0_33408_73">
<rect width="361" height="72" fill="white" transform="translate(0.833313)"/>
</clipPath>
</defs>
</svg>
