<svg width="20" height="21" viewBox="0 0 20 21" fill="none" xmlns="http://www.w3.org/2000/svg">
<path d="M12.0253 16.1833C11.867 16.1833 11.7087 16.125 11.5837 16C11.342 15.7583 11.342 15.3583 11.5837 15.1166L16.2003 10.5L11.5837 5.88331C11.342 5.64164 11.342 5.24164 11.5837 4.99998C11.8253 4.75831 12.2253 4.75831 12.467 4.99998L17.5253 10.0583C17.767 10.3 17.767 10.7 17.5253 10.9416L12.467 16C12.342 16.125 12.1837 16.1833 12.0253 16.1833Z" fill="white"/>
<path d="M16.942 11.125H2.91699C2.57533 11.125 2.29199 10.8416 2.29199 10.5C2.29199 10.1583 2.57533 9.87498 2.91699 9.87498H16.942C17.2837 9.87498 17.567 10.1583 17.567 10.5C17.567 10.8416 17.2837 11.125 16.942 11.125Z" fill="white"/>
</svg>
