<svg width="102" height="70" viewBox="0 0 102 70" fill="none" xmlns="http://www.w3.org/2000/svg">
<path d="M69.1267 35.0006C69.0869 41.8264 67.0268 48.4875 63.2064 54.1441C59.3859 59.8007 53.9761 64.1994 47.659 66.7856C41.342 69.3717 34.4007 70.0296 27.7103 68.6761C21.02 67.3227 14.8801 64.0186 10.0651 59.1804C5.24998 54.3422 1.97527 48.1866 0.653859 41.4899C-0.667553 34.7931 0.0235031 27.855 2.63989 21.5504C5.25627 15.2459 9.68083 9.85715 15.3556 6.06379C21.0304 2.27044 27.7014 0.242295 34.5273 0.235107L34.5631 0.235107C43.755 0.267429 52.5582 3.94702 59.0389 10.4656C65.5196 16.9842 69.1479 25.8086 69.1267 35.0006Z" fill="url(#paint0_radial_32746_217)"/>
<path d="M45.0309 68.9685C36.0531 70.8598 26.6917 69.1235 18.9894 64.1384C11.287 59.1533 5.86897 51.3242 3.9175 42.3593C1.96603 33.3944 3.63955 24.0215 8.57288 16.2859C13.5062 8.55028 21.2989 3.07986 30.2505 1.06832C35.1206 -0.0193563 40.1706 -0.0193563 45.0407 1.06832C37.335 2.80786 30.4502 7.11679 25.5175 13.2871C20.5849 19.4574 17.8978 27.1221 17.8978 35.0217C17.8978 42.9213 20.5849 50.586 25.5175 56.7563C30.4502 62.9266 37.335 67.2355 45.0407 68.9751L45.0309 68.9685Z" fill="url(#paint1_linear_32746_217)"/>
<path d="M72.1134 34.9984C72.1197 41.5381 70.2846 47.9473 66.8181 53.4927C63.3517 59.038 58.394 63.4953 52.5124 66.3544C46.6344 63.4906 41.6797 59.0323 38.2136 53.488C34.7476 47.9438 32.9097 41.5369 32.9097 34.9984C32.9097 28.4599 34.7476 22.053 38.2136 16.5088C41.6797 10.9646 46.6344 6.50622 52.5124 3.64246C58.394 6.50156 63.3517 10.9589 66.8181 16.5042C70.2846 22.0495 72.1197 28.4588 72.1134 34.9984Z" fill="url(#paint2_linear_32746_217)"/>
<path d="M87.0385 35.0017C87.0528 42.899 84.3781 50.566 79.4546 56.7408C74.5311 62.9155 67.6521 67.2301 59.9497 68.9746C52.9215 67.3623 46.5666 63.6093 41.7612 58.2332C36.9558 52.857 33.9366 46.1225 33.1199 38.9581C32.3032 31.7938 33.7292 24.5525 37.2014 18.2327C40.6735 11.913 46.0208 6.82606 52.5058 3.67337C54.891 2.51616 57.4036 1.64224 59.9921 1.06946C67.6854 2.8098 74.5563 7.11903 79.4727 13.2871C84.3891 19.4551 87.0576 27.114 87.0385 35.0017Z" fill="url(#paint3_linear_32746_217)"/>
<path d="M84.0535 35.0006C84.0136 41.8279 81.9527 48.4905 78.1306 54.1478C74.3086 59.8052 68.8966 64.2039 62.5775 66.789C56.2585 69.3741 49.3153 70.0298 42.6239 68.6735C35.9326 67.3171 29.7928 64.0095 24.9792 59.1677C20.1656 54.326 16.8937 48.167 15.5763 41.4679C14.2589 34.7688 14.9551 27.8296 17.5769 21.5256C20.1988 15.2217 24.6289 9.83547 30.3084 6.04641C35.9879 2.25736 42.6624 0.235224 49.4898 0.235107L49.5614 0.235107C58.7434 0.278181 67.533 3.9635 74.0001 10.4818C80.4671 17.0001 84.0829 25.8185 84.0535 35.0006Z" fill="url(#paint4_radial_32746_217)"/>
<path d="M32.911 35.0001C32.8925 27.107 35.5656 19.4434 40.4892 13.2742C45.4128 7.10497 52.2926 2.79876 59.9933 1.06622C55.5202 0.0552296 50.8914 -0.0604747 46.3734 0.72578C41.8555 1.51203 37.5378 3.1847 33.6693 5.64736C29.8008 8.11003 26.4579 11.314 23.8334 15.0746C21.2089 18.8352 19.3546 23.078 18.3775 27.5585C17.4003 32.0391 17.3196 36.6687 18.14 41.1806C18.9603 45.6925 20.6656 49.9974 23.1574 53.8472C25.6492 57.6969 28.8784 61.0155 32.6587 63.6115C36.439 66.2075 40.6957 68.0297 45.1835 68.9729C50.0536 70.0606 55.1037 70.0606 59.9738 68.9729C52.2743 67.2272 45.3989 62.9114 40.4798 56.7363C35.5607 50.5612 32.8912 42.8949 32.911 35.0001Z" fill="url(#paint5_linear_32746_217)"/>
<path d="M102 35.0006C101.96 41.8264 99.9 48.4875 96.0795 54.1441C92.2591 59.8007 86.8492 64.1994 80.5322 66.7856C74.2152 69.3717 67.2739 70.0296 60.5835 68.6761C53.8931 67.3227 47.7533 64.0186 42.9382 59.1804C38.1231 54.3422 34.8484 48.1866 33.527 41.4899C32.2056 34.7931 32.8967 27.855 35.513 21.5504C38.1294 15.2459 42.554 9.85715 48.2288 6.06379C53.9036 2.27044 60.5745 0.242295 67.4004 0.235107L67.472 0.235107C76.6603 0.268717 85.459 3.94987 91.9338 10.4692C98.4086 16.9885 102.029 25.8123 102 35.0006Z" fill="url(#paint6_linear_32746_217)"/>
<defs>
<radialGradient id="paint0_radial_32746_217" cx="0" cy="0" r="1" gradientUnits="userSpaceOnUse" gradientTransform="translate(34.5634 -32.706) scale(34.5634 34.5637)">
<stop offset="0.01" stop-color="#27AAE1" stop-opacity="0"/>
<stop offset="0.32" stop-color="#1E85B4" stop-opacity="0.22"/>
<stop offset="0.65" stop-color="#05162D" stop-opacity="0.871"/>
<stop offset="0.7" stop-color="#000013"/>
<stop offset="1" stop-color="#000532" stop-opacity="0"/>
</radialGradient>
<linearGradient id="paint1_linear_32746_217" x1="3.03848" y1="34.9143" x2="45.0407" y2="34.9143" gradientUnits="userSpaceOnUse">
<stop stop-color="#27AAE1"/>
<stop offset="0.08" stop-color="#2699CF"/>
<stop offset="0.27" stop-color="#2474AA"/>
<stop offset="0.45" stop-color="#23588D"/>
<stop offset="0.64" stop-color="#224379"/>
<stop offset="0.82" stop-color="#21376C"/>
<stop offset="1" stop-color="#213368"/>
</linearGradient>
<linearGradient id="paint2_linear_32746_217" x1="32.9097" y1="34.9357" x2="72.1134" y2="34.9357" gradientUnits="userSpaceOnUse">
<stop stop-color="#27AAE1"/>
<stop offset="0.08" stop-color="#2699CF"/>
<stop offset="0.27" stop-color="#2474AA"/>
<stop offset="0.45" stop-color="#23588D"/>
<stop offset="0.64" stop-color="#224379"/>
<stop offset="0.82" stop-color="#21376C"/>
<stop offset="1" stop-color="#213368"/>
</linearGradient>
<linearGradient id="paint3_linear_32746_217" x1="32.8956" y1="34.9541" x2="87.0386" y2="34.9541" gradientUnits="userSpaceOnUse">
<stop offset="0.01" stop-color="#FFCB05"/>
<stop offset="0.19" stop-color="#FEC706"/>
<stop offset="0.38" stop-color="#FDBA09"/>
<stop offset="0.57" stop-color="#FAA60F"/>
<stop offset="0.76" stop-color="#F78916"/>
<stop offset="0.96" stop-color="#F26420"/>
<stop offset="1" stop-color="#F15A22"/>
</linearGradient>
<radialGradient id="paint4_radial_32746_217" cx="0" cy="0" r="1" gradientUnits="userSpaceOnUse" gradientTransform="translate(49.4902 34.7988) scale(34.5635 34.5637)">
<stop offset="0.01" stop-color="#27AAE1" stop-opacity="0"/>
<stop offset="0.32" stop-color="#1E85B4" stop-opacity="0.22"/>
<stop offset="0.65" stop-color="#05162D" stop-opacity="0.871"/>
<stop offset="0.7" stop-color="#000013"/>
<stop offset="1" stop-color="#000532" stop-opacity="0"/>
</radialGradient>
<linearGradient id="paint5_linear_32746_217" x1="17.4945" y1="34.9304" x2="59.9933" y2="34.9304" gradientUnits="userSpaceOnUse">
<stop offset="0.01" stop-color="#FFCB05"/>
<stop offset="0.19" stop-color="#FEC706"/>
<stop offset="0.38" stop-color="#FDBA09"/>
<stop offset="0.57" stop-color="#FAA60F"/>
<stop offset="0.76" stop-color="#F78916"/>
<stop offset="0.96" stop-color="#F26420"/>
<stop offset="1" stop-color="#F15A22"/>
</linearGradient>
<linearGradient id="paint6_linear_32746_217" x1="32.8732" y1="34.6605" x2="102" y2="34.6605" gradientUnits="userSpaceOnUse">
<stop stop-color="#213368"/>
<stop offset="0.15" stop-color="#213C71"/>
<stop offset="0.39" stop-color="#235489"/>
<stop offset="0.69" stop-color="#257BB1"/>
<stop offset="1" stop-color="#27AAE1"/>
</linearGradient>
</defs>
</svg>
