<svg width="54" height="72" viewBox="0 0 54 72" fill="none" xmlns="http://www.w3.org/2000/svg">
<path d="M47.1519 19.4028C46.0828 19.9217 44.5781 20.7218 42.5831 21.9287C41.1827 22.7752 40.0062 23.5798 39.127 24.2154C39.7308 27.6296 40.0234 31.4776 40.0234 35.6785C40.0234 53.4646 34.9069 64.7139 24.1947 64.7139C14.6729 64.7139 8.48427 54.4277 8.48427 36.3215C8.48427 17.3569 15.1491 7.28614 24.3145 7.28614C29.0731 7.28614 32.6832 9.45912 35.2337 13.3475C36.2934 12.5862 37.8448 11.4227 39.3107 10.1351C40.1704 9.40283 40.9329 8.57155 41.581 7.66002C37.6254 2.72183 32.0857 0 24.9089 0C9.19852 0 0.0144043 13.1979 0.0144043 36.5548C0.252488 59.5902 8.48427 72 23.6003 72C40.7376 72 49.0768 59.9073 49.0768 36.2288C49.0768 29.9163 48.4403 24.2617 47.1519 19.4028Z" fill="#F34F42"/>
<path d="M53.8914 8.89695C53.7231 9.75294 52.5208 11.4872 51.0954 12.7644C49.8203 13.9 46.9915 14.9332 43.1029 16.5348C41.2506 17.2974 39.3215 18.1399 37.5247 19.0905C36.8795 19.4296 36.2518 19.7829 35.6501 20.1523C35.6288 20.1678 35.6061 20.1819 35.582 20.1972C35.4676 20.2643 35.3499 20.337 35.2367 20.4085C35.0361 20.5322 34.8396 20.6575 34.6497 20.7904C33.5126 21.5587 32.4489 22.4227 31.4711 23.3722C32.4068 22.0292 33.8146 20.4485 35.3606 18.845C35.4777 18.7252 35.5996 18.5987 35.7182 18.4791C35.7431 18.4538 35.7661 18.4355 35.7882 18.4101C36.191 17.9976 36.5996 17.5855 37.0079 17.1763C38.6983 15.4878 40.3967 13.8628 41.6842 12.5698C42.3646 11.9139 43.0053 11.2211 43.6032 10.4947C44.834 8.88669 44.6575 6.91474 44.4624 5.93664C44.462 5.93127 44.4604 5.92603 44.4578 5.92125C44.4552 5.91647 44.4516 5.91224 44.4473 5.90882C44.443 5.90541 44.4379 5.90287 44.4326 5.90137C44.4272 5.89986 44.4215 5.89942 44.4159 5.90007C44.4104 5.90072 44.405 5.90245 44.4001 5.90515C44.3953 5.90785 44.391 5.91147 44.3877 5.91579C44.3843 5.9201 44.3819 5.92503 44.3806 5.93027C44.3792 5.93551 44.379 5.94095 44.3799 5.94627C44.4323 7.25163 44.064 8.54069 43.3255 9.6374C42.944 10.1969 42.193 10.8933 41.217 11.6958C39.8741 12.8008 38.1048 14.1085 36.2768 15.5415C36.185 15.6147 36.0916 15.6877 35.9983 15.7607C35.9766 15.7805 35.9539 15.7959 35.9294 15.8155C35.8158 15.9084 35.6995 16.0012 35.5787 16.0949C35.522 16.1407 35.4725 16.1856 35.416 16.2285C35.3594 16.2728 35.3028 16.3172 35.2439 16.3727C35.1874 16.4156 35.1247 16.4652 35.0676 16.5152C34.4169 17.0322 33.7684 17.5764 33.1406 18.1292C33.1376 18.1293 33.1347 18.1303 33.1325 18.1323C33.1302 18.1342 33.1287 18.1368 33.1283 18.1397C33.0097 18.2422 32.8895 18.3475 32.7689 18.457C32.7349 18.4873 32.6997 18.5147 32.6699 18.5467C31.8212 19.3 31.0149 20.0962 30.2543 20.932C29.3047 21.9932 28.4681 23.1433 27.757 24.3649C27.7537 24.366 27.7508 24.368 27.7486 24.3706C27.7464 24.3732 27.7449 24.3763 27.7444 24.3796C27.7197 24.4192 27.6957 24.4688 27.6725 24.5084C27.4799 24.8379 27.3047 25.1658 27.1369 25.4915C26.4934 26.7405 25.9614 28.0398 25.5465 29.3753C25.134 29.4761 24.7365 29.6272 24.3639 29.825C22.8423 30.6354 18.0448 34.4227 16.3151 36.2737C15.2314 37.4338 13.6649 38.2441 12.6464 38.6877C12.4043 38.7929 12.1935 38.8767 12.0277 38.9407C11.9758 38.9631 11.9292 38.9955 11.891 39.036C11.8528 39.0765 11.8237 39.1241 11.8056 39.1759C11.7875 39.2277 11.7807 39.2826 11.7856 39.337C11.7906 39.3915 11.8073 39.4444 11.8346 39.4923C12.0651 39.9071 12.337 40.2994 12.6464 40.6638C13.0937 41.2071 13.6565 41.6525 14.2972 41.9703C16.0799 42.8076 19.1368 41.9987 21.1561 41.7385C23.1741 41.4782 24.4197 41.8494 24.9704 42.6981C26.1493 44.515 24.198 49.2349 20.672 50.8612C19.6467 51.3332 16.1812 52.4057 13.93 53.2027C13.5789 53.327 12.9146 53.5568 12.3865 53.7317C12.6286 54.6842 13.3933 56.0828 13.9446 56.9263C16.501 60.837 19.832 63.0814 24.2528 63.0814C27.5988 63.0814 30.5102 61.6794 32.5877 59.5614C34.062 58.0141 35.1109 56.1374 35.6392 54.1018C36.6729 50.2006 36.1492 47.6987 35.8017 45.9165C35.4732 44.238 34.9626 42.5972 34.2784 41.021C33.0941 38.134 32.0564 36.6759 30.857 34.6828C30.1975 33.5896 29.9133 33.2483 30.5429 32.738C30.8095 32.5219 31.0909 32.7195 31.3928 32.765C32.6506 32.9512 33.9493 33.028 35.1038 32.3399C35.4542 32.1171 35.7627 31.8388 36.0162 31.5167C36.3698 31.0888 36.673 30.6083 36.9654 30.2017C37.1544 29.9401 37.1531 29.7198 36.8281 29.5549C36.5779 29.4283 36.3045 29.3032 36.0163 29.1895C34.7272 28.6791 33.1239 28.3735 31.8525 28.9577C31.144 29.2833 30.6871 29.6429 30.2275 29.9344C30.1511 29.9829 30.0733 30.0266 29.9955 30.0708C31.4509 28.1941 33.0364 26.4138 34.7412 24.7422C34.7911 24.6917 34.8424 24.6412 34.9056 24.586C35.0143 24.4813 35.1362 24.3733 35.2598 24.2626C35.2843 24.243 35.3074 24.2233 35.3291 24.2021C36.0773 23.5616 36.8588 22.9578 37.6704 22.3931C39.3906 21.1803 41.4413 19.9061 43.4565 18.6992C47.1045 16.5126 49.6107 15.1309 50.873 14.1198C52.6243 12.7139 53.9528 9.9878 53.9852 8.90941C53.9869 8.89746 53.9836 8.88534 53.9761 8.87572C53.9685 8.8661 53.9572 8.85977 53.9448 8.85811C53.9386 8.8573 53.9324 8.85765 53.9264 8.85916C53.9203 8.86067 53.9147 8.8633 53.9097 8.86691C53.8997 8.87419 53.8931 8.885 53.8914 8.89695Z" fill="#F34F42"/>
</svg>
