<svg width="32" height="32" viewBox="0 0 32 32" fill="none" xmlns="http://www.w3.org/2000/svg">
<g clip-path="url(#clip0_32775_783)">
<path d="M27.3187 4.69106L16.008 0L4.69106 4.68125L0 15.992L4.68125 27.3089L15.992 32.0012L27.3089 27.32L32.0012 16.008L27.3187 4.69106ZM10.7554 25.6856L15.992 24.0917L21.2336 25.6856L15.9933 30.921L10.7554 25.6856ZM21.2446 6.31319L15.9994 7.90712L10.7627 6.31319L16.0067 1.07161L21.2446 6.31319ZM21.9153 25.0014L17.4683 23.6527L22.2071 22.2157L23.6429 17.4952L24.9916 21.9349L21.9153 25.0014ZM21.5193 21.523L15.992 23.1991L10.4672 21.5193L8.79605 16.0104L10.4807 10.4758L15.9982 8.80218L21.5156 10.4807L23.1954 16.0166L21.5193 21.523ZM10.0798 7.00103L14.5232 8.34975L9.79287 9.78674L8.34852 14.533L6.99981 10.0798L10.0798 7.00103ZM22.2047 9.79287L17.4756 8.35465L21.9202 7.00594L24.999 10.0884L23.6503 14.5403L22.2047 9.79287ZM6.30829 10.7615L7.90222 16.0092L6.30829 21.2361L1.07161 15.9933L6.30829 10.7615ZM8.34729 17.4866L9.77938 22.2071L14.5158 23.6478L10.0675 24.9965L7.00226 21.9227L8.34729 17.4866ZM25.6795 21.2508L24.0917 16.0178L25.6856 10.7639L30.9235 16.0067L25.6795 21.2508ZM30.3141 14.1774L17.8361 1.68711L26.664 5.34825L30.3141 14.1774ZM5.34825 5.33844L14.1762 1.68589L1.68711 14.1639L5.34825 5.33844ZM1.68589 17.8226L6.02629 22.1667L9.8272 25.9676L14.1664 30.3117L5.33844 26.6505L1.68589 17.8226ZM26.6518 26.6616L17.8238 30.3141L30.3129 17.8361L26.6518 26.6616Z" fill="white"/>
</g>
<defs>
<clipPath id="clip0_32775_783">
<rect width="32" height="32" fill="white"/>
</clipPath>
</defs>
</svg>
