<svg width="26" height="32" viewBox="0 0 26 32" fill="none" xmlns="http://www.w3.org/2000/svg">
<path fill-rule="evenodd" clip-rule="evenodd" d="M4.57545 27.3601C5.10219 26.3892 6.31626 26.0292 7.28714 26.5559C8.9838 27.4764 10.9278 28 13.0001 28C15.0723 28 17.0163 27.4764 18.713 26.5559C19.6838 26.0292 20.8979 26.3892 21.4247 27.3601C21.9514 28.331 21.5913 29.5451 20.6205 30.0718C18.3528 31.3021 15.755 32 13.0001 32C10.2451 32 7.64728 31.3021 5.37964 30.0718C4.40875 29.5451 4.04871 28.331 4.57545 27.3601Z" fill="url(#paint0_linear_32774_739)"/>
<path fill-rule="evenodd" clip-rule="evenodd" d="M13 25.3333C19.9956 25.3333 25.6667 19.6623 25.6667 12.6667C25.6667 12.5227 25.6643 12.3793 25.6595 12.2364C25.6642 12.1805 25.6666 12.1238 25.6666 12.0667V2C25.6666 0.89543 24.7712 0 23.6666 0C22.5621 0 21.6666 0.89543 21.6666 2V3.42894C19.4009 1.30245 16.3526 0 13 0C6.00443 0 0.333374 5.67106 0.333374 12.6667C0.333374 19.6623 6.00443 25.3333 13 25.3333ZM21.6667 12.6667C21.6667 17.4531 17.7865 21.3333 13 21.3333C8.21357 21.3333 4.33337 17.4531 4.33337 12.6667C4.33337 7.88019 8.21357 4 13 4C17.7865 4 21.6667 7.88019 21.6667 12.6667Z" fill="url(#paint1_linear_32774_739)"/>
<defs>
<linearGradient id="paint0_linear_32774_739" x1="13.3137" y1="25.0029" x2="13.2925" y2="32.0009" gradientUnits="userSpaceOnUse">
<stop stop-color="#D2F5E8"/>
<stop offset="0.776682" stop-color="#1DCC8B"/>
</linearGradient>
<linearGradient id="paint1_linear_32774_739" x1="13.4584" y1="-5.83854" x2="13.1711" y2="25.3349" gradientUnits="userSpaceOnUse">
<stop stop-color="#D2F5E8"/>
<stop offset="0.776682" stop-color="#1DCC8B"/>
</linearGradient>
</defs>
</svg>
