<svg width="34" height="34" viewBox="0 0 34 34" fill="none" xmlns="http://www.w3.org/2000/svg">
<path d="M24.8925 0.0950928H0.0938721V24.8937C0.0938721 29.8748 4.13191 33.9101 9.11028 33.9101H24.8897C29.8708 33.9101 33.9062 29.8721 33.9062 24.8937V9.11428C33.9062 4.13317 29.8681 0.0978368 24.8897 0.0978368L24.8925 0.0950928ZM29.1142 22.251C26.7264 26.8209 22.0222 29.7049 16.8629 29.7049C16.7889 29.7049 16.7176 29.7049 16.6436 29.7049C11.5857 29.6254 6.95283 26.725 4.61168 22.251C3.42466 22.103 2.53916 20.9845 2.80233 19.707C2.96408 18.923 3.58917 18.2788 4.36772 18.0978C5.75761 17.7771 6.99393 18.8243 6.99393 20.1594C6.99393 20.5294 6.88976 20.8721 6.72254 21.1764C8.66618 24.8745 12.4987 27.2678 16.6793 27.3336C21.0025 27.4021 24.9884 25.0061 27.0006 21.1737C26.7347 20.6912 26.6306 20.1073 26.8471 19.4713C27.0884 18.7667 27.6996 18.2184 28.4316 18.0786C29.7831 17.8209 30.9674 18.8517 30.9674 20.1594C30.9674 21.2395 30.156 22.1194 29.1115 22.251H29.1142Z" fill="#82AAFF"/>
</svg>
