<svg width="48" height="26" viewBox="0 0 48 26" fill="none" xmlns="http://www.w3.org/2000/svg">
<path d="M24 10.706C27.753 10.7081 31.3607 12.2001 34.0721 14.8715C36.7836 17.5429 38.3899 21.1878 38.5567 25.0477C38.5654 25.2254 38.6401 25.3928 38.7653 25.5153C38.8906 25.6378 39.0568 25.706 39.2296 25.7058H47.3267C47.4171 25.7059 47.5067 25.6871 47.59 25.6507C47.6733 25.6143 47.7486 25.561 47.8114 25.494C47.8742 25.427 47.9233 25.3476 47.9556 25.2606C47.9879 25.1736 48.0029 25.0808 47.9995 24.9877C47.9984 18.4349 45.4687 12.151 40.9671 7.51836C36.4654 2.88571 30.3606 0.28381 23.9955 0.285035C17.6304 0.286259 11.5265 2.89052 7.02659 7.52489C2.52664 12.1593 -0.000737134 18.4441 0.000452505 24.9969C-0.0028651 25.09 0.012087 25.1828 0.0444141 25.2698C0.0767412 25.3568 0.125779 25.4362 0.188596 25.5032C0.251412 25.5703 0.326717 25.6236 0.410006 25.66C0.493295 25.6964 0.582858 25.7151 0.673337 25.715H8.76141C8.93419 25.7153 9.10043 25.647 9.2257 25.5245C9.35097 25.402 9.42565 25.2346 9.43429 25.0569C9.59898 21.1938 11.2056 17.5452 13.9192 14.8716C16.6327 12.198 20.2439 10.7058 24 10.706Z" fill="#0059C5"/>
</svg>
