<svg width="32" height="32" viewBox="0 0 32 32" fill="none" xmlns="http://www.w3.org/2000/svg">
<path fill-rule="evenodd" clip-rule="evenodd" d="M21.9196 21.6037C19.784 24.2784 16.638 25.9523 13.2258 26.2192C4.38063 28.4633 2.43253 14.5258 8.33734 15.7206C9.52314 15.9632 10.3943 16.97 10.473 18.1769C10.7997 17.2733 10.6787 16.2665 10.1402 15.4659C9.60784 14.6653 8.72454 14.174 7.76864 14.1316C8.13164 13.7373 8.73664 13.7009 9.14199 14.0406C8.54304 11.7237 6.58889 10.0134 4.22333 9.72834C3.64253 9.33411 3.24323 8.72154 3.11618 8.02406C2.98913 7.33265 3.15248 6.61697 3.55783 6.04079C2.32968 7.24167 1.65813 8.89743 1.69443 10.6199C-0.380729 15.3628 0.085122 20.8334 2.93468 25.1578C5.78424 29.4761 10.6242 32.0538 15.791 31.9992C24.5393 31.9082 31.5875 24.7757 31.5875 15.9996C31.5875 10.2803 28.5928 5.25234 24.0795 2.42603C28.5565 7.36297 29.8149 14.4348 27.3162 20.6212C27.4312 17.4916 26.4087 14.4712 24.4969 12.0937C24.987 15.4841 24.0553 18.929 21.9196 21.6037Z" fill="url(#paint0_linear_32775_787)"/>
<path fill-rule="evenodd" clip-rule="evenodd" d="M13.2258 26.2188C16.638 25.9519 19.784 24.284 21.9197 21.6033C24.0553 18.9286 24.9931 15.4837 24.503 12.0872C23.7952 11.2017 22.9603 10.4012 22.0165 9.72187C18.5437 7.20487 14.0486 6.5923 10.0314 8.08431C15.0105 7.22913 19.7416 10.571 20.6189 15.5564C21.5022 20.548 18.1928 25.309 13.2258 26.2188Z" fill="url(#paint1_linear_32775_787)"/>
<path fill-rule="evenodd" clip-rule="evenodd" d="M21.2966 5.28265C26.0942 8.80038 28.4356 14.7684 27.3224 20.6151C29.821 14.4287 28.5626 7.3569 24.0856 2.41995C21.6717 0.915822 18.8403 0.0303252 15.7971 0C11.7738 0.0303252 7.90182 1.5102 4.88892 4.17882C10.1101 1.34038 16.4989 1.77099 21.2966 5.28265Z" fill="url(#paint2_linear_32775_787)"/>
<defs>
<linearGradient id="paint0_linear_32775_787" x1="15.5557" y1="30.8454" x2="16.1505" y2="11.761" gradientUnits="userSpaceOnUse">
<stop stop-color="#E6340D"/>
<stop offset="1" stop-color="#EC6801"/>
</linearGradient>
<linearGradient id="paint1_linear_32775_787" x1="7.96372" y1="9.14781" x2="19.0488" y2="19.1646" gradientUnits="userSpaceOnUse">
<stop stop-color="#EC6801"/>
<stop offset="1" stop-color="#E6340D"/>
</linearGradient>
<linearGradient id="paint2_linear_32775_787" x1="14.6173" y1="3.41917" x2="27.448" y2="15.0134" gradientUnits="userSpaceOnUse">
<stop stop-color="#EC6801"/>
<stop offset="1" stop-color="#E6340D"/>
</linearGradient>
</defs>
</svg>
