<svg width="34" height="34" viewBox="0 0 34 34" fill="none" xmlns="http://www.w3.org/2000/svg">
<path d="M24.8924 0.0950928H0.093811V24.8937C0.093811 29.8748 4.13185 33.9101 9.11022 33.9101H24.8897C29.8708 33.9101 33.9062 29.8721 33.9062 24.8937V9.11428C33.9062 4.13317 29.868 0.0978368 24.8897 0.0978368L24.8924 0.0950928ZM29.1141 22.251C26.7264 26.8209 22.0222 29.7049 16.8629 29.7049C16.7889 29.7049 16.7176 29.7049 16.6436 29.7049C11.5857 29.6254 6.95277 26.725 4.61162 22.251C3.4246 22.103 2.5391 20.9845 2.80227 19.707C2.96402 18.923 3.58911 18.2788 4.36766 18.0978C5.75755 17.7771 6.99387 18.8243 6.99387 20.1594C6.99387 20.5294 6.8897 20.8721 6.72248 21.1764C8.66612 24.8745 12.4986 27.2678 16.6792 27.3336C21.0024 27.4021 24.9884 25.0061 27.0005 21.1737C26.7346 20.6912 26.6305 20.1073 26.8471 19.4713C27.0883 18.7667 27.6996 18.2184 28.4315 18.0786C29.783 17.8209 30.9673 18.8517 30.9673 20.1594C30.9673 21.2395 30.1559 22.1194 29.1115 22.251H29.1141Z" fill="#82AAFF"/>
</svg>
