<svg width="32" height="32" viewBox="0 0 32 32" fill="none" xmlns="http://www.w3.org/2000/svg">
<circle cx="15.9999" cy="16" r="13.4649" transform="rotate(12.165 15.9999 16)" fill="#7A007A"/>
<path d="M19.2833 19.5773C18.7485 20.6487 17.6655 21.4082 16.4086 21.4217C14.5769 21.4488 13.0794 19.8757 13.0794 18.0177V16.0241H15.1785C16.4354 16.0241 17.4516 14.9935 17.4516 13.7186C17.4516 12.4438 16.4354 11.4131 15.1785 11.4131H13.0794V9.77217C13.0794 8.49737 12.0632 7.46667 10.8063 7.46667C9.5495 7.46667 8.53333 8.49737 8.53333 9.77217V18.0991C8.53333 22.5067 12.1033 26.1005 16.4755 26.0327C19.7914 25.9785 22.5859 23.795 23.6823 20.7979" stroke="white" stroke-width="0.7" stroke-miterlimit="10"/>
<path d="M21.3168 19.5773C22.4319 19.5773 23.3358 18.6605 23.3358 17.5295C23.3358 16.3985 22.4319 15.4817 21.3168 15.4817C20.2018 15.4817 19.2979 16.3985 19.2979 17.5295C19.2979 18.6605 20.2018 19.5773 21.3168 19.5773Z" fill="#FFE600"/>
</svg>
